<svg width="633" height="388" viewBox="0 0 633 388" fill="none" xmlns="http://www.w3.org/2000/svg">
<rect width="316.286" height="169.513" transform="translate(0 42.3807)" fill="#58CCA6"/>
<g clip-path="url(#clip0)">
<path d="M192.763 196.171C192.763 196.171 212.496 259.977 218.746 303.696L160.997 316.873L131.809 217.628L192.763 196.171Z" fill="#DC1AA3"/>
<path d="M162.801 211.956L152.249 317.532C152.249 317.532 101.765 313.456 89.2166 310.525C89.2166 310.525 86.2527 241.483 98.0925 211.956C109.932 182.429 162.801 211.956 162.801 211.956Z" fill="#DC1AA3"/>
<path d="M167.827 68.2991H114.137C117.952 56.7651 119.591 44.6226 118.969 32.4898C118.116 16.639 123.979 8.32701 129.279 4.26765C133.034 1.41211 137.642 -0.0920448 142.359 -0.00111123C176.364 0.417711 172.498 21.1333 169.743 35.776C167.787 46.4991 167.144 57.4205 167.827 68.2991Z" fill="#201626"/>
<path d="M157.727 50.4162C157.727 51.372 158.01 52.3063 158.541 53.101C159.072 53.8957 159.827 54.5151 160.71 54.8809C161.593 55.2467 162.564 55.3424 163.502 55.1559C164.439 54.9694 165.3 54.5092 165.976 53.8333C166.652 53.1575 167.112 52.2964 167.299 51.359C167.485 50.4215 167.39 49.4499 167.024 48.5668C166.658 47.6838 166.039 46.9291 165.244 46.3981C164.449 45.867 163.515 45.5836 162.559 45.5836C161.277 45.5836 160.048 46.0928 159.142 46.999C158.236 47.9053 157.727 49.1345 157.727 50.4162Z" fill="white"/>
<path d="M116.376 163.564C116.376 163.564 115.361 178.948 114.121 191.19C114.121 191.19 151.042 213.34 187.963 184.586L180.665 164.064L116.376 163.564Z" fill="#740052"/>
<path d="M100.701 131.816C106.919 145.508 113.153 159.909 114.055 170.219C114.426 174.52 123.366 175.985 134.626 175.776C154.955 175.373 182.839 169.478 181.663 164.806C179.862 157.673 178.644 150.406 178.022 143.076C175.622 115.401 182.855 97.8428 178.377 87.2917C176.25 82.3625 167.423 77.6266 159.804 74.2438C153.36 71.4409 147.883 69.6529 147.883 69.6529L127.667 68.5575C127.667 68.5575 98.1722 82.7813 91.9704 92.0277C85.1887 102.144 92.4215 113.42 100.701 131.816Z" fill="#740052"/>
<path d="M178.377 87.2926C178.377 87.2926 194.018 135.618 205.761 137.229C214.292 134.337 222.669 131.009 230.858 127.258C242.473 121.362 244.374 121.266 252.283 129.578C260.192 137.89 262.125 143.012 257.776 150.921C253.427 158.831 208.387 181.528 196.563 181.189C184.74 180.851 168.035 150.245 168.035 150.245L178.377 87.2926Z" fill="#740052"/>
<path d="M232.92 126.735C232.568 129.931 232.886 133.166 233.853 136.233C234.82 139.3 236.415 142.132 238.536 144.549C240.658 146.966 243.259 148.915 246.175 150.271C249.091 151.628 252.257 152.362 255.472 152.428C255.616 152.404 255.746 152.331 255.84 152.22C255.934 152.109 255.985 151.969 255.985 151.824C255.985 151.679 255.934 151.538 255.84 151.428C255.746 151.317 255.616 151.243 255.472 151.22C252.418 151.151 249.411 150.445 246.645 149.147C243.879 147.849 241.414 145.989 239.408 143.684C237.403 141.38 235.9 138.682 234.996 135.763C234.092 132.845 233.808 129.77 234.161 126.735C234.257 125.962 233.049 125.978 232.952 126.735H232.92Z" fill="#C6781C"/>
<path d="M244.536 129.964C244.536 129.964 244.278 124.165 247.564 120.669C250.851 117.174 252.542 113.501 255.168 111.004C257.793 108.507 257.246 113.372 256.456 115.837C255.667 118.301 254.765 121.169 256.746 121.459C258.728 121.749 274.691 115.547 277.365 116.272C280.039 116.997 277.784 118.801 277.784 118.801C277.784 118.801 281.376 117.432 282.617 118.801C283.857 120.17 281.94 121.7 281.94 121.7C281.94 121.7 284.372 120.863 284.759 122.667C285.146 124.471 272.243 131.51 272.839 132.445C273.435 133.379 278.992 127.161 280.893 128.546C282.794 129.932 278.283 132.638 275.013 135.215C271.683 137.921 267.513 139.379 263.222 139.339C258.969 139.194 251.753 141.192 248.821 137.245C247.127 134.985 245.69 132.543 244.536 129.964Z" fill="#DF6966"/>
<path d="M281.971 121.314C277.718 122.925 273.546 124.761 269.454 126.678C268.971 126.904 269.535 127.629 270.018 127.403C274.045 125.502 278.153 123.741 282.341 122.12C282.84 121.926 282.47 121.105 281.971 121.314Z" fill="#A53D31"/>
<path d="M277.543 118.807C274.222 119.734 271.026 121.059 268.023 122.753C267.556 123.011 268.119 123.736 268.587 123.478C271.528 121.818 274.66 120.52 277.913 119.612C278.429 119.467 278.058 118.662 277.543 118.807Z" fill="#A53D31"/>
<path d="M271.453 130.478C270.474 126.885 268.714 123.552 266.298 120.717C265.912 120.265 265.219 120.717 265.606 121.151C267.929 123.861 269.624 127.052 270.567 130.494C270.712 131.026 271.598 131.01 271.453 130.494V130.478Z" fill="#A53D31"/>
<path d="M264.35 125.998C258.792 125.224 254.024 127.608 251.994 132.135C251.785 132.602 252.623 133.021 252.832 132.538C254.701 128.333 259.114 126.094 264.269 126.819C264.328 126.835 264.389 126.838 264.45 126.828C264.51 126.818 264.567 126.795 264.617 126.76C264.668 126.726 264.71 126.681 264.741 126.628C264.772 126.576 264.791 126.517 264.797 126.456C264.803 126.395 264.795 126.334 264.775 126.277C264.755 126.219 264.722 126.167 264.68 126.123C264.637 126.079 264.586 126.045 264.529 126.024C264.471 126.002 264.41 125.993 264.35 125.998Z" fill="#A53D31"/>
<path d="M187.078 175.586C188.457 174.263 190.113 173.264 191.925 172.66C193.738 172.056 195.662 171.863 197.558 172.094C199.455 172.326 201.276 172.976 202.89 173.997C204.504 175.019 205.871 176.387 206.892 178.002C207.311 178.646 208.358 178.002 207.939 177.39C206.817 175.624 205.318 174.13 203.549 173.013C201.78 171.896 199.786 171.185 197.71 170.931C195.634 170.677 193.527 170.886 191.541 171.543C189.555 172.2 187.739 173.289 186.225 174.732C185.645 175.263 186.499 176.117 187.078 175.586Z" fill="#C6781C"/>
<path d="M205.309 137.644C201.156 140.615 197.245 143.911 193.615 147.502C193.051 148.05 193.904 148.904 194.468 148.356C198.026 144.839 201.856 141.607 205.921 138.691C206.55 138.24 205.921 137.193 205.309 137.66V137.644Z" fill="#C6781C"/>
<path d="M201.799 139.836C199.874 139.87 197.963 140.157 196.113 140.69C195.959 140.732 195.828 140.834 195.75 140.973C195.671 141.112 195.651 141.277 195.694 141.431C195.737 141.584 195.839 141.715 195.978 141.793C196.117 141.872 196.281 141.892 196.435 141.849C198.18 141.349 199.984 141.079 201.799 141.044C201.942 141.02 202.073 140.947 202.167 140.836C202.261 140.726 202.312 140.585 202.312 140.44C202.312 140.295 202.261 140.154 202.167 140.044C202.073 139.933 201.942 139.859 201.799 139.836Z" fill="#C6781C"/>
<path d="M180.955 93.8925C181.149 102.534 183.355 111.012 187.399 118.651C187.689 119.199 186.851 119.698 186.545 119.135C182.462 111.337 180.256 102.693 180.102 93.8925C180.122 93.7774 180.183 93.6733 180.273 93.5984C180.363 93.5235 180.476 93.4824 180.593 93.4824C180.71 93.4824 180.823 93.5235 180.913 93.5984C181.003 93.6733 181.063 93.7774 181.084 93.8925H180.955Z" fill="#C6781C"/>
<path d="M161.03 99.1976C155.621 100.818 149.926 101.254 144.333 100.476C138.74 99.6973 133.381 97.723 128.619 94.6872C128.088 94.3489 128.619 93.5113 129.119 93.8496C133.769 96.8149 139.002 98.744 144.465 99.5057C149.927 100.267 155.489 99.8436 160.772 98.2633C160.896 98.2291 161.028 98.2456 161.14 98.309C161.252 98.3725 161.334 98.4777 161.368 98.6016C161.402 98.7255 161.386 98.8579 161.322 98.9697C161.259 99.0814 161.154 99.1634 161.03 99.1976Z" fill="#C6781C"/>
<path d="M177.651 147.472C164.934 152.194 151.082 152.946 137.928 149.63C137.815 149.58 137.723 149.491 137.67 149.379C137.618 149.267 137.607 149.14 137.64 149.021C137.673 148.901 137.748 148.798 137.851 148.73C137.954 148.661 138.079 148.632 138.202 148.648C151.177 151.913 164.839 151.16 177.378 146.489C177.99 146.264 178.247 147.246 177.651 147.472Z" fill="#C6781C"/>
<path d="M105.972 125.324C114.14 138.635 119.22 153.607 120.84 169.139C120.84 169.8 119.89 169.784 119.825 169.139C118.215 153.767 113.185 138.95 105.102 125.775C105.034 125.66 105.014 125.522 105.047 125.392C105.08 125.262 105.164 125.151 105.279 125.083C105.394 125.014 105.532 124.995 105.662 125.028C105.792 125.061 105.903 125.144 105.972 125.26V125.324Z" fill="#C6781C"/>
<path d="M97.1584 87.2929C97.1584 87.2929 54.9701 118.511 48.4462 133.702C41.9222 148.892 72.4801 194.56 88.9591 198.764C105.438 202.968 118.985 179.692 110.367 169.704C101.749 159.717 93.5662 149.069 93.5662 149.069C93.5662 149.069 111.833 137.793 114.137 133.766C122.223 119.591 105.068 81.0106 97.1584 87.2929Z" fill="#740052"/>
<path d="M107.45 165.788C103.692 164.616 99.6876 164.477 95.8573 165.386C92.0269 166.294 88.5115 168.217 85.6797 170.951C82.8479 173.686 80.8041 177.132 79.7624 180.928C78.7208 184.725 78.7198 188.731 79.7595 192.528C79.8022 192.682 79.9043 192.812 80.0433 192.891C80.1822 192.969 80.3467 192.99 80.5005 192.947C80.6543 192.904 80.7848 192.802 80.8634 192.663C80.9419 192.524 80.962 192.36 80.9193 192.206C79.9391 188.613 79.944 184.823 80.9334 181.232C81.9228 177.642 83.8603 174.384 86.5426 171.801C89.2249 169.218 92.553 167.404 96.1779 166.55C99.8027 165.696 103.591 165.833 107.144 166.948C107.298 166.99 107.462 166.97 107.601 166.892C107.74 166.813 107.842 166.683 107.885 166.529C107.928 166.375 107.908 166.211 107.829 166.072C107.751 165.933 107.62 165.831 107.466 165.788H107.45Z" fill="#C6781C"/>
<path d="M53.5518 126.388C55.5935 129.796 56.2923 133.843 55.512 137.738C54.7317 141.634 52.5282 145.099 49.3314 147.458C48.7031 147.909 49.3314 148.972 49.9274 148.505C53.3988 145.98 55.8022 142.25 56.6663 138.045C57.5305 133.841 56.7931 129.465 54.5988 125.776C54.5075 125.659 54.3771 125.58 54.2318 125.552C54.0865 125.525 53.9361 125.551 53.8084 125.625C53.6807 125.7 53.5844 125.818 53.5372 125.958C53.49 126.099 53.4952 126.251 53.5518 126.388Z" fill="#C6781C"/>
<path d="M105.695 141.316C109.25 138.263 113.297 135.834 117.663 134.131C118.388 133.841 118.082 132.682 117.357 132.955C112.793 134.736 108.561 137.274 104.841 140.462C104.245 140.978 105.115 141.831 105.695 141.316Z" fill="#C6781C"/>
<path d="M93.6295 148.524C89.8985 143.213 85.1918 138.659 79.76 135.106C79.0996 134.687 78.5035 135.718 79.1479 136.153C84.431 139.585 89.0123 143.991 92.6468 149.137C93.0979 149.765 94.1449 149.137 93.6939 148.524H93.6295Z" fill="#C6781C"/>
<path d="M90.5841 144.06C90.1067 140.869 89.2411 137.748 88.0067 134.766C87.7168 134.057 86.557 134.363 86.8469 135.088C88.0891 138.067 88.9549 141.189 89.4243 144.383C89.5371 145.156 90.713 144.834 90.6002 144.06H90.5841Z" fill="#C6781C"/>
<path d="M178.376 98.9246C178.376 98.9246 177.329 106.173 185.802 115.967C196.031 127.775 180.808 140.694 177.506 144.415C174.204 148.136 178.376 98.9246 178.376 98.9246Z" fill="#740052"/>
<path d="M160.723 74.3363C160.723 74.3363 166.828 101.608 165.781 106.006C164.943 109.501 135.416 112.046 131.808 108.229C128.2 104.411 118.841 72.6771 118.841 72.6771C116.069 72.9031 113.385 73.7556 110.99 75.1703C108.596 76.5851 106.555 78.5252 105.02 80.8442C107.855 77.9446 123.174 119.505 118.841 149.064C116.747 163.562 108.177 190.237 108.177 190.237C134.631 190.568 160.975 186.763 186.255 178.961C186.255 178.961 179.812 165.044 179.505 156.264C179.199 147.485 176.493 152.608 181.761 143.732C187.028 134.856 195.276 129.573 187.06 117.588C178.845 105.603 170.952 96.3406 171.467 79.7488C168.588 76.7985 164.807 74.8937 160.723 74.3363Z" fill="#DC1AA3"/>
<path d="M123.014 87.4838C120.947 87.2321 118.849 87.4697 116.891 88.1777C114.932 88.8856 113.167 90.0439 111.738 91.5593C111.303 92.0264 110.627 91.3338 111.046 90.8666C112.556 89.2669 114.418 88.0399 116.484 87.2823C118.55 86.5248 120.763 86.2574 122.95 86.5012C123.562 86.5012 123.578 87.5483 122.95 87.4838H123.014Z" fill="black"/>
<path d="M171.579 87.1305C169.064 86.2133 166.299 86.2592 163.815 87.2594C163.235 87.4849 162.977 86.5506 163.557 86.3251C166.211 85.253 169.168 85.2071 171.853 86.1962C172.433 86.4056 172.175 87.3561 171.579 87.1305Z" fill="black"/>
<path d="M178.022 121.841C162.724 125.968 146.811 127.332 131.034 125.869C130.405 125.869 130.405 124.822 131.034 124.886C146.719 126.358 162.541 125.005 177.748 120.891C177.866 120.88 177.984 120.91 178.081 120.977C178.178 121.044 178.248 121.143 178.279 121.257C178.31 121.371 178.299 121.492 178.249 121.599C178.199 121.706 178.113 121.792 178.006 121.841H178.022Z" fill="black"/>
<path d="M131.307 125.51C130.604 132.567 130.544 139.673 131.13 146.741C131.275 148.481 131.452 150.221 131.678 151.944C131.678 152.827 131.86 153.699 132.212 154.508C132.564 155.318 133.078 156.046 133.723 156.648C135.207 157.436 136.879 157.799 138.556 157.695C140.36 157.808 142.164 157.888 143.984 157.921C151.294 158.071 158.603 157.641 165.844 156.632C168.776 156.411 171.656 155.737 174.381 154.634C177.684 153.024 178.811 149.963 178.988 146.451C179.247 138.262 178.664 130.068 177.249 121.998C177.152 121.386 178.102 121.129 178.199 121.741C179.553 129.721 180.146 137.811 179.971 145.904C180.063 147.346 179.867 148.793 179.394 150.159C178.921 151.526 178.181 152.784 177.216 153.861C175.1 155.584 172.534 156.663 169.823 156.97C161.893 158.354 153.854 159.007 145.805 158.919C142.173 159.133 138.529 158.917 134.948 158.275C132.177 157.582 131.146 155.327 130.743 152.685C129.463 143.681 129.301 134.554 130.26 125.51C130.26 124.882 131.291 124.882 131.243 125.51H131.307Z" fill="black"/>
<path d="M122.527 114.373C122.521 115.166 122.751 115.944 123.188 116.606C123.626 117.268 124.25 117.785 124.982 118.091C125.715 118.397 126.521 118.478 127.3 118.323C128.078 118.169 128.793 117.786 129.353 117.224C129.913 116.662 130.293 115.945 130.444 115.166C130.595 114.387 130.511 113.581 130.202 112.85C129.893 112.119 129.374 111.497 128.71 111.062C128.046 110.627 127.268 110.401 126.474 110.41C125.429 110.423 124.43 110.845 123.692 111.586C122.954 112.327 122.536 113.327 122.527 114.373Z" fill="black"/>
<path d="M169.082 109.536C169.082 110.326 169.316 111.098 169.755 111.755C170.194 112.412 170.818 112.924 171.548 113.227C172.278 113.529 173.081 113.608 173.856 113.454C174.631 113.3 175.343 112.919 175.902 112.361C176.46 111.802 176.841 111.09 176.995 110.315C177.149 109.54 177.07 108.737 176.768 108.007C176.465 107.277 175.953 106.653 175.296 106.214C174.639 105.775 173.867 105.541 173.077 105.541C172.017 105.541 171.001 105.962 170.252 106.711C169.503 107.46 169.082 108.476 169.082 109.536Z" fill="black"/>
<path d="M126.266 71.8416C126.266 71.8416 138.975 83.617 152.635 74.4512L151.862 66.558L151.024 57.9883L150.445 51.9637L133.208 40.14L126.266 71.8416Z" fill="#DF6966"/>
<path d="M136.383 50.1503C142.826 65.4534 149.85 71.2364 152.314 71.0914L151.025 57.9951L136.383 50.1503Z" fill="#201626"/>
<path d="M154.778 72.1443C154.778 72.1443 154.102 64.09 152.314 63.639C150.525 63.1879 146.901 66.8607 141.15 65.7492C135.4 64.6377 130.213 59.3058 127.7 60.6106C125.187 61.9154 124.301 73.0142 124.301 73.0142C124.301 73.0142 132.355 82.1477 143.18 81.0684C154.005 79.9892 154.778 72.1443 154.778 72.1443Z" fill="#740052"/>
<path d="M154.617 76.5962C149.206 79.4585 143.066 80.6473 136.978 80.0112C132.355 79.4958 126.491 78.0621 124.558 73.2617C124.333 72.6818 125.267 72.4241 125.509 73.004C127.426 77.8366 134.127 78.9158 138.637 79.1575C144.019 79.4307 149.375 78.2393 154.134 75.7102C154.681 75.4203 155.181 76.2579 154.617 76.564V76.5962Z" fill="#C6781C"/>
<path d="M127.831 35.4373C129.055 41.5103 130.569 43.6044 134.451 49.7256C137.597 54.3496 142.362 57.626 147.805 58.9075C160.145 60.9372 166.346 56.3946 166.234 39.4C166.153 28.8489 169.455 23.2915 167.216 18.9905L166.749 18.4589C162.73 13.8461 157.087 10.9611 150.995 10.4047C120.791 7.63398 126.075 26.8032 127.831 35.4373Z" fill="#DF6966"/>
<path d="M151.555 29.7867C150.973 29.4587 150.285 29.3728 149.64 29.5476C148.995 29.7224 148.445 30.1439 148.108 30.7209C147.544 31.9613 145.498 31.3009 146.062 30.0283C146.316 29.4698 146.677 28.9671 147.126 28.5492C147.575 28.1314 148.103 27.8067 148.678 27.594C149.253 27.3813 149.865 27.2847 150.477 27.31C151.09 27.3352 151.692 27.4816 152.248 27.7409C153.504 28.3047 152.828 30.3666 151.555 29.7867Z" fill="#201626"/>
<path d="M163.881 32.0722C163.124 31.0091 162.157 29.4787 160.659 29.7526C159.161 30.0264 158.839 27.9001 160.192 27.6424C162.624 27.1913 164.219 28.8344 165.508 30.6386C166.313 31.7501 164.718 33.1998 163.897 32.0722H163.881Z" fill="#201626"/>
<path d="M156.388 41.1925C156.961 41.2716 157.541 41.12 158.002 40.771C158.462 40.4221 158.766 39.9045 158.845 39.332C158.924 38.7595 158.772 38.1791 158.423 37.7184C158.074 37.2577 157.557 36.9545 156.984 36.8754L156.485 35.0874C156.468 35.0221 156.438 34.9609 156.397 34.9074C156.356 34.8539 156.305 34.8092 156.246 34.7761C156.188 34.743 156.123 34.7221 156.056 34.7147C155.989 34.7073 155.921 34.7135 155.856 34.733C155.778 34.7432 155.704 34.7717 155.639 34.8162C155.574 34.8607 155.521 34.9199 155.483 34.989C155.445 35.0581 155.424 35.1352 155.422 35.2139C155.42 35.2925 155.436 35.3706 155.47 35.4418L156.05 37.5198C156.077 37.608 156.127 37.6875 156.195 37.7498C156.263 37.8122 156.346 37.8551 156.436 37.8742C156.436 37.8742 157.854 38.1641 157.757 39.2273C157.661 40.2905 156.388 40.2582 156.34 40.2582C156.206 40.2624 156.079 40.3186 155.986 40.4148C155.892 40.511 155.84 40.6397 155.84 40.7737C155.867 40.8972 155.937 41.0072 156.037 41.084C156.137 41.1607 156.262 41.1992 156.388 41.1925Z" fill="#201626"/>
<path d="M143.18 38.419C143.18 39.3211 144.484 40.1265 146.224 40.2231C147.964 40.3198 149.446 39.6593 149.446 38.7734C149.446 37.8874 148.141 37.0498 146.418 36.9531C144.694 36.8565 143.228 37.5169 143.18 38.419Z" fill="#A53D31"/>
<path d="M161.027 40.2744C161.027 41.1765 162.348 41.998 164.072 42.0947C164.788 42.1686 165.511 42.0974 166.198 41.8853C166.198 41.1121 166.198 40.2744 166.198 39.5012V39.4045C165.574 39.1197 164.902 38.9558 164.217 38.9213C162.525 38.7924 161.076 39.4529 161.027 40.2744Z" fill="#A53D31"/>
<path d="M151.201 41.3198H150.799C150.07 41.3542 149.344 41.2277 148.67 40.9492C147.996 40.6708 147.392 40.2473 146.9 39.7089C145.821 38.5435 145.197 37.0279 145.145 35.4402C144.967 33.9161 145.399 32.3836 146.346 31.1767C147.294 29.9698 148.68 29.1862 150.203 28.9967C150.931 28.9623 151.658 29.0889 152.331 29.3673C153.005 29.6457 153.609 30.0692 154.101 30.6076C155.159 31.7762 155.778 33.2754 155.855 34.8498C155.931 36.4241 155.459 37.9762 154.52 39.2418C154.136 39.7951 153.645 40.2647 153.074 40.6219C152.504 40.9792 151.866 41.2166 151.201 41.3198ZM146.063 35.4402C146.122 36.7992 146.658 38.0939 147.577 39.0968C147.971 39.56 148.467 39.9262 149.025 40.1671C149.584 40.408 150.19 40.5171 150.798 40.486C151.405 40.4548 151.997 40.2842 152.528 39.9875C153.059 39.6907 153.514 39.2757 153.859 38.7746C154.681 37.6903 155.087 36.3471 155.003 34.9891C154.944 33.6301 154.408 32.3353 153.489 31.3325C153.086 30.8813 152.588 30.5256 152.031 30.2915C151.474 30.0574 150.871 29.9508 150.267 29.9794C149.63 30.0567 149.015 30.26 148.458 30.5775C147.9 30.895 147.412 31.3203 147.02 31.8286C146.629 32.3369 146.343 32.918 146.178 33.5381C146.014 34.1581 145.975 34.8047 146.063 35.4402Z" fill="white"/>
<path d="M158.048 34.7305C157.726 34.3858 157.307 34.1472 156.847 34.0465C156.387 33.9458 155.906 33.9877 155.47 34.1667C155.052 34.3278 155.325 34.9721 155.744 34.8111C156.035 34.6966 156.353 34.6692 156.659 34.7321C156.965 34.795 157.246 34.9456 157.468 35.1654C157.774 35.4715 158.322 35.0527 158.016 34.7305H158.048Z" fill="white"/>
<path d="M157.453 36.2611V36.6155V37.0826C157.867 37.2579 158.214 37.5596 158.446 37.9444C158.677 38.3293 158.781 38.7776 158.742 39.2251C158.726 39.5066 158.649 39.7813 158.517 40.0305C158.704 40.3297 158.92 40.6102 159.161 40.8681C159.652 41.4066 160.257 41.83 160.93 42.1085C161.604 42.3869 162.331 42.5134 163.059 42.479H163.462C164.118 42.3878 164.749 42.167 165.318 41.8296C165.888 41.4923 166.385 41.045 166.78 40.5137C167.721 39.2457 168.193 37.6908 168.117 36.1137C168.041 34.5366 167.42 33.0347 166.361 31.8635C165.868 31.3277 165.263 30.906 164.59 30.6278C163.917 30.3496 163.191 30.2215 162.463 30.2526C161.024 30.4375 159.708 31.1595 158.779 32.2738C157.85 33.388 157.377 34.8123 157.453 36.2611ZM162.56 31.1225C163.163 31.1017 163.763 31.2119 164.319 31.4455C164.875 31.6791 165.374 32.0305 165.782 32.4756C166.696 33.48 167.226 34.775 167.28 36.1322C167.364 37.4903 166.958 38.8334 166.136 39.9177C165.789 40.4061 165.335 40.8094 164.809 41.0972C164.284 41.385 163.7 41.5498 163.101 41.5793C162.503 41.6088 161.905 41.5021 161.354 41.2673C160.802 41.0325 160.312 40.6757 159.918 40.2238C158.995 39.2232 158.459 37.9271 158.404 36.5672C158.318 35.9366 158.357 35.2952 158.52 34.6798C158.682 34.0645 158.964 33.4872 159.351 32.9813C159.737 32.4754 160.219 32.0508 160.77 31.7318C161.321 31.4128 161.929 31.2057 162.56 31.1225Z" fill="white"/>
<path d="M145.805 33.0566C143.774 30.8402 140.974 29.4808 137.976 29.255C137.541 29.255 137.445 29.9155 137.88 29.9477C140.701 30.1443 143.34 31.4122 145.257 33.4916C145.563 33.8137 146.111 33.3788 145.805 33.0566Z" fill="white"/>
<path d="M149.35 33.7287C149.987 33.6693 150.627 33.8175 151.172 34.1514C151.718 34.4853 152.141 34.9869 152.379 35.5812C152.42 35.6722 152.479 35.7541 152.552 35.8224C152.624 35.8906 152.71 35.9439 152.804 35.979C152.897 36.0142 152.997 36.0306 153.096 36.0273C153.196 36.024 153.294 36.001 153.385 35.9598C153.476 35.9185 153.558 35.8598 153.627 35.7868C153.695 35.7139 153.748 35.6283 153.783 35.5348C153.818 35.4413 153.835 35.3418 153.831 35.242C153.828 35.1422 153.805 35.044 153.764 34.953C153.382 34.0629 152.726 33.3176 151.892 32.8252C151.058 32.3328 150.089 32.1189 149.125 32.2145C148.142 32.3112 148.384 33.8254 149.35 33.7287Z" fill="#201626"/>
<path d="M163.141 35.0205C162.622 34.9333 162.088 35.0125 161.617 35.2469C161.145 35.4812 160.76 35.8587 160.515 36.3253C160.129 37.034 159.05 36.4058 159.42 35.697C159.815 34.9877 160.427 34.4236 161.167 34.0873C161.906 33.7511 162.733 33.6603 163.528 33.8284C164.333 33.9895 164.011 35.1977 163.222 35.0527L163.141 35.0205Z" fill="#201626"/>
<path d="M156.407 52.0305C155.81 52.2504 155.163 52.299 154.54 52.1709C153.917 52.0429 153.342 51.7432 152.879 51.3057C152.396 50.8063 153.202 50.0814 153.685 50.5969C154.025 50.8855 154.438 51.0743 154.879 51.1425C155.319 51.2108 155.77 51.1557 156.182 50.9835C156.858 50.7902 157.084 51.8534 156.407 52.0305Z" fill="#A53D31"/>
<path d="M129.23 11.7715C139.362 5.45692 157.162 1.60698 168.454 15.4925C172.175 21.195 167.117 32.1649 167.327 28.3794C167.81 19.2619 163.219 14.22 161.028 16.604C161.028 16.604 144.453 31.7461 134.562 29.9902C134.562 29.9902 131.952 37.2713 126.105 38.9949C123.012 30.1674 123.753 19.3264 129.23 11.7715Z" fill="#201626"/>
<path d="M160.995 44.3121C157.153 44.4345 153.323 43.8109 149.719 42.4757C149.719 42.4757 149.944 49.2896 155.453 49.5635C160.06 49.8051 160.995 44.3121 160.995 44.3121Z" fill="white"/>
<path d="M139.363 40.9561C139.771 39.889 139.932 38.7435 139.835 37.6053C139.737 36.4671 139.383 35.3658 138.799 34.3838C137.317 31.7903 134.514 27.7793 131.599 27.9404C127.298 28.2948 126.573 32.0481 126.766 35.9946C126.96 39.9412 129.231 45.096 134.531 44.5644C135.601 44.5019 136.629 44.1267 137.488 43.4853C138.347 42.8439 138.999 41.9645 139.363 40.9561Z" fill="#DF6966"/>
<path d="M125.492 44.599C125.492 45.5548 125.776 46.4892 126.307 47.2839C126.838 48.0786 127.592 48.698 128.475 49.0638C129.358 49.4295 130.33 49.5252 131.268 49.3388C132.205 49.1523 133.066 48.692 133.742 48.0162C134.418 47.3403 134.878 46.4793 135.064 45.5418C135.251 44.6044 135.155 43.6327 134.789 42.7497C134.424 41.8667 133.804 41.1119 133.01 40.5809C132.215 40.0499 131.281 39.7665 130.325 39.7665C129.043 39.7665 127.814 40.2756 126.908 41.1819C126.001 42.0882 125.492 43.3174 125.492 44.599Z" fill="white"/>
<path d="M133.82 39.9015C134.26 38.3526 134.299 36.7174 133.933 35.1494C133.514 33.748 132.161 31.67 130.389 32.0888C129.793 32.2338 129.471 31.3317 130.067 31.1867C130.886 31.0625 131.724 31.2014 132.459 31.5835C133.195 31.9656 133.79 32.5712 134.159 33.3131C135.236 35.4083 135.455 37.8405 134.771 40.0948C134.745 40.2208 134.671 40.3315 134.563 40.4025C134.456 40.4735 134.325 40.4989 134.199 40.4733C134.073 40.4477 133.962 40.373 133.891 40.2658C133.82 40.1585 133.795 40.0275 133.82 39.9015Z" fill="#201626"/>
<path d="M98.7385 228.043C109.338 255.766 185.435 237.209 194.681 227.076C203.927 216.944 184.839 175.787 184.839 175.787C163.904 184.958 140.621 187.341 118.262 182.601L117.134 182.359C116.136 182.133 115.137 181.908 114.122 181.65C114.122 181.65 113.574 182.262 112.689 183.358L111.931 184.324C106.374 191.492 92.5045 211.693 98.7385 228.043Z" fill="#DC1AA3"/>
<path d="M163.427 200.391L156.806 276.552L154.922 298.267C154.922 298.895 153.891 298.895 153.939 298.267L160.56 222.106L162.444 200.391C162.444 199.779 163.492 199.763 163.427 200.391Z" fill="black"/>
<path d="M161.013 217.598C158.21 218.902 155.874 216.534 155.101 213.973C153.992 209.677 153.762 205.2 154.424 200.812C154.505 200.2 155.488 200.184 155.407 200.812C155.012 203.936 155.012 207.096 155.407 210.22C155.697 212.604 156.712 218.532 160.529 216.76C161.093 216.486 161.593 217.34 161.029 217.598H161.013Z" fill="black"/>
<path d="M111.977 184.329C130.033 190.182 149.441 190.413 167.632 184.99C173.462 183.241 179.102 180.909 184.465 178.031C185.125 177.693 184.465 176.726 183.837 177.064C163.63 187.738 140.18 190.528 118.033 184.893L116.986 184.619C115.569 184.233 114.151 183.814 112.75 183.363L111.977 184.329Z" fill="black"/>
<path d="M174.8 172.442C176.128 174.813 176.966 177.426 177.265 180.126C177.265 180.867 178.505 180.803 178.409 180.126C178.09 177.228 177.192 174.423 175.767 171.879C175.396 171.234 174.446 171.879 174.8 172.507V172.442Z" fill="black"/>
<path d="M119.242 174.26C117.924 177.573 117.141 181.075 116.922 184.634C116.922 185.375 118.017 185.31 118.066 184.634C118.29 181.274 119.034 177.97 120.272 174.84C120.546 174.163 119.515 173.632 119.242 174.324V174.26Z" fill="black"/>
<path d="M140.248 177.629C139.338 180.765 139.032 184.045 139.346 187.294C139.346 188.035 140.57 187.971 140.506 187.294C140.197 184.132 140.492 180.939 141.376 177.887C141.585 177.178 140.458 176.937 140.248 177.645V177.629Z" fill="black"/>
<path d="M158.856 180.19C158.899 180.946 159.24 181.654 159.805 182.159C160.085 182.409 160.411 182.601 160.765 182.725C161.119 182.848 161.494 182.901 161.868 182.88C162.243 182.859 162.609 182.764 162.947 182.601C163.285 182.439 163.588 182.211 163.837 181.931C164.087 181.651 164.279 181.325 164.403 180.971C164.527 180.617 164.58 180.242 164.559 179.868C164.516 179.112 164.174 178.403 163.61 177.899C163.045 177.394 162.302 177.135 161.546 177.178C160.79 177.22 160.082 177.562 159.577 178.127C159.073 178.692 158.813 179.434 158.856 180.19Z" fill="black"/>
<path d="M120.115 194.075C116.893 203.401 111.658 215.225 100.124 215.435C99.3669 215.435 99.4474 216.594 100.124 216.594C112.238 216.369 117.843 204.142 121.178 194.316C121.419 193.624 120.276 193.382 120.05 194.075H120.115Z" fill="black"/>
<path d="M177.41 190.899C179.118 194.212 181.48 197.143 184.354 199.516C187.229 201.889 190.554 203.654 194.13 204.704C194.839 204.914 195.081 203.786 194.372 203.577C190.947 202.554 187.766 200.846 185.022 198.556C182.278 196.266 180.027 193.441 178.408 190.255C178.07 189.594 177.104 190.255 177.442 190.899H177.41Z" fill="black"/>
<path d="M96.3832 184.456C96.9833 182.441 98.0791 180.607 99.5706 179.124C101.062 177.641 102.902 176.556 104.921 175.967C105.861 175.614 106.897 175.614 107.836 175.967C110.092 177.24 125.218 185.632 126.265 188.403C127.312 191.174 114.521 186.116 114.521 186.116C114.521 186.116 125.169 193.815 123.43 195.362C121.69 196.908 109.786 190.078 109.786 190.078C109.786 190.078 116.406 196.264 116.616 198.133C116.97 201.193 105.098 193.3 105.098 193.3C105.098 193.3 108.642 200.646 107.563 201.87C106.483 203.094 97.6558 200.935 98.1391 199.244C98.7029 197.279 101.49 198.712 101.908 198.455C102.327 198.197 94.9013 195.99 94.5469 193.155C94.7541 190.185 95.3721 187.257 96.3832 184.456Z" fill="#DF6966"/>
</g>
<rect width="316.286" height="169.513" transform="translate(316.285 42.3807)" fill="#1A458E"/>
<g clip-path="url(#clip1)">
<path d="M472.017 204.186L459.074 306.443L469.668 419.507H508.174L502.326 310.548L514.877 216.511L472.017 204.186Z" fill="#2B1473"/>
<path d="M494.199 118.112C494.199 118.112 461.719 131.232 445.134 131.161C428.55 131.089 389.984 89.1426 389.984 89.1426L393.033 80.2099C393.033 80.2099 442.394 107.494 445.158 108.111C447.922 108.728 490.154 80.0913 490.154 80.0913C490.154 80.0913 499.193 105.24 494.199 118.112Z" fill="#DF6966"/>
<path d="M405.003 86.7974C405.003 86.7974 404.517 95.1725 398.941 98.3517C398.941 98.3517 400.401 101.911 403.532 102.824C403.532 102.824 409.226 96.8926 410.223 89.6444C409.586 88.8466 408.796 88.1838 407.9 87.695C407.004 87.2061 406.019 86.9009 405.003 86.7974Z" fill="#201626"/>
<path d="M445.481 108.526C445.985 111.333 446.826 114.069 447.984 116.676C448.233 117.221 447.402 117.672 447.153 117.115C445.956 114.438 445.087 111.625 444.567 108.739C444.46 108.146 445.374 107.933 445.481 108.526Z" fill="#A53D31"/>
<path d="M445.621 110.131C444.468 112.479 443.668 114.986 443.249 117.569C443.154 118.15 442.217 118.126 442.311 117.569C442.745 114.826 443.585 112.164 444.803 109.668C445.064 109.122 445.847 109.668 445.597 110.166L445.621 110.131Z" fill="#A53D31"/>
<path d="M505.756 109.015C499.575 117.129 488.424 129.063 473.643 133.63L459.598 96.9386C459.598 96.9386 475.778 85.0758 489.385 80.9001C498.009 78.231 501.07 82.3829 504.736 86.2621C507.567 89.3224 509.223 93.2867 509.41 97.4518C509.597 101.617 508.302 105.713 505.756 109.015Z" fill="#69451A"/>
<path d="M462.064 95.8834L476.727 131.341C476.952 131.875 477.818 131.614 477.593 131.08L462.93 95.6105C462.705 95.0886 461.839 95.3495 462.064 95.8834Z" fill="white"/>
<path d="M402.383 88.9952C403.119 87.1251 403.206 85.062 402.629 83.1367C402.053 81.2114 400.846 79.5355 399.204 78.378C398.167 77.6483 397.076 76.9979 395.941 76.4325C393.569 75.175 387.922 72.0314 385.81 70.7383C383.699 69.4453 382.43 68.176 381.73 69.8368C381.03 71.4976 388.124 77.4289 388.124 77.4289C388.124 77.4289 374.375 73.8701 372.406 75.8868C370.436 77.9035 375.324 78.7101 375.324 78.7101C375.324 78.7101 369.345 78.4373 369.013 80.2048C368.681 81.9724 374.944 82.4825 374.944 82.4825C374.944 82.4825 369.843 82.6248 369.357 84.0484C368.87 85.4719 372.761 85.9464 374.778 86.0295C374.778 86.0295 370.033 86.67 370.033 88.2834C370.033 89.8967 374.446 88.9477 377.305 89.007C380.164 89.0663 387.139 89.3985 389.583 92.032C390.494 93.0072 391.675 93.6886 392.976 93.9894C394.884 94.4373 396.89 94.178 398.622 93.2597C400.354 92.3414 401.694 90.8262 402.395 88.9952H402.383Z" fill="#DF6966"/>
<path d="M374.943 79.041C377.386 78.7866 379.856 78.9633 382.238 79.563C382.324 79.5702 382.409 79.5461 382.479 79.4952C382.548 79.4443 382.597 79.3701 382.615 79.2862C382.634 79.2023 382.622 79.1144 382.581 79.0388C382.54 78.9633 382.473 78.905 382.393 78.875C379.952 78.2615 377.423 78.0768 374.919 78.3293C374.468 78.3293 374.492 79.0885 374.919 79.041H374.943Z" fill="#A53D31"/>
<path d="M374.149 82.7593C376.407 82.5555 378.684 82.7482 380.875 83.3287C381.314 83.4592 381.468 82.7712 381.03 82.6288C378.779 82.0382 376.443 81.8416 374.125 82.0476C374.031 82.0476 373.941 82.0851 373.874 82.1518C373.807 82.2185 373.77 82.3091 373.77 82.4034C373.77 82.4978 373.807 82.5884 373.874 82.6551C373.941 82.7218 374.031 82.7593 374.125 82.7593H374.149Z" fill="#A53D31"/>
<path d="M374.278 86.4655C376.315 86.1644 378.391 86.2449 380.399 86.7028C380.486 86.7143 380.574 86.6932 380.647 86.6434C380.719 86.5937 380.771 86.5189 380.792 86.4335C380.812 86.348 380.8 86.258 380.759 86.1807C380.717 86.1034 380.648 86.0443 380.565 86.0148C378.492 85.5372 376.348 85.4487 374.242 85.7538C373.803 85.825 373.827 86.5249 374.242 86.4655H374.278Z" fill="#A53D31"/>
<path d="M387.992 77.5648C389.757 79.544 391.999 81.0387 394.505 81.9066C394.932 82.0608 395.086 81.3609 394.659 81.2185C392.278 80.3727 390.152 78.9358 388.479 77.0428C388.17 76.6988 387.696 77.2326 387.992 77.5648Z" fill="#A53D31"/>
<path d="M389.619 80.0777C389.579 82.1138 390.102 84.1213 391.13 85.8795C392.157 87.6376 393.65 89.0781 395.444 90.0425C395.527 90.0817 395.622 90.0874 395.709 90.0584C395.796 90.0295 395.868 89.9681 395.911 89.887C395.954 89.806 395.964 89.7115 395.938 89.6233C395.913 89.5352 395.855 89.4601 395.776 89.4137C394.097 88.5033 392.703 87.1458 391.748 85.4917C390.793 83.8375 390.315 81.9514 390.367 80.0421C390.367 79.5914 389.667 79.6151 389.655 80.0421L389.619 80.0777Z" fill="#A53D31"/>
<path d="M382.629 78.1696C381.626 79.4334 380.959 80.9302 380.689 82.5209C380.42 84.1116 380.556 85.7447 381.087 87.2684C381.241 87.7073 381.917 87.4819 381.763 87.0548C381.27 85.6491 381.138 84.1418 381.381 82.6719C381.624 81.202 382.232 79.8168 383.151 78.6441C383.436 78.2883 382.914 77.8137 382.629 78.1696Z" fill="#A53D31"/>
<path d="M483.68 167.702L562.994 181.226C562.994 181.226 564.596 172.696 565.818 159.695C566.316 154.499 566.731 148.591 567.004 142.233C567.277 135.874 567.3 129.184 567.004 122.196C566.696 111.944 565.566 101.733 563.623 91.6616C562.377 85.0778 554.192 79.9056 545.129 75.5876C542.626 74.4013 540.301 73.3811 538.213 72.5507C534.862 71.1525 531.427 69.964 527.928 68.9919C527.928 68.9919 520.751 68.2445 509.849 71.3644L507.809 72.0287C496.053 75.6469 486.562 80.3327 486.966 83.6543C487.203 85.5642 485.708 95.517 486.645 108.044C487.144 114.77 487.167 121.995 487.476 129.279C487.476 129.706 487.476 130.144 487.476 130.583C488.271 149.41 487.796 166.812 483.68 167.702Z" fill="#FF9247"/>
<path d="M517.38 83.0982C527.463 82.7898 534.877 76.1703 538.211 72.5403C534.86 71.1422 531.425 69.9536 527.926 68.9815C527.926 68.9815 520.749 68.2341 509.847 71.354L507.807 72.0302C507.178 76.2534 507.546 83.3948 517.38 83.0982Z" fill="white"/>
<path d="M537.036 77.9575C531.899 81.5875 526.419 85.2531 520.131 86.4631C514.734 87.4951 508.862 86.6291 504.615 82.9042C504.295 82.6195 504.793 82.1806 505.113 82.4535C509.348 86.1191 515.351 86.8071 520.665 85.6208C526.597 84.304 531.721 80.8757 536.585 77.4118C536.941 77.1626 537.38 77.6609 537.036 77.91V77.9575Z" fill="#69451A"/>
<path d="M565.814 159.692C565.66 164.52 565.672 170.06 565.672 175.766V178.031C565.672 179.835 565.672 181.59 565.672 183.453C565.672 186.786 565.589 190.084 565.47 193.263C565.47 193.406 565.47 193.536 565.47 193.678C565.364 196.395 565.209 199.017 564.984 201.472C564.201 209.859 562.612 216.277 559.266 218.08C547.332 224.356 460.046 227.772 469.536 199.266C470.141 197.439 470.817 195.292 471.541 192.919C472.265 190.547 473.012 188.008 473.795 185.28C474.886 181.495 476.025 177.415 477.164 173.251C477.816 170.878 478.469 168.506 479.109 166.038C483.439 149.751 487.259 133.938 487.413 130.604C487.413 129.88 487.413 129.418 487.413 129.418L565.257 122.988C565.257 122.988 565.779 131.126 565.921 142.36C566.04 147.532 566.016 153.535 565.814 159.692Z" fill="#FF9247"/>
<path d="M486.668 89.7149C488.785 90.6655 490.956 91.4933 493.169 92.1942C505.684 96.1564 519.267 97.663 532.316 98.1256C543.062 98.4876 553.818 97.8721 564.452 96.2869C564.203 94.7329 563.918 93.1907 563.61 91.6604C563.415 90.7397 563.096 89.8498 562.661 89.015C558.596 89.6002 554.511 90.0313 550.407 90.3081C537.194 91.2476 523.916 90.6385 510.844 88.493C503.098 87.2119 494.628 85.6934 487.558 81.8973C487.134 82.3955 486.914 83.0352 486.941 83.6886C486.955 85.7008 486.864 87.7123 486.668 89.7149Z" fill="#69451A"/>
<path d="M486.453 103.621C486.453 105.056 486.572 106.539 486.69 108.058C486.785 109.398 486.868 110.739 486.94 112.115C488.695 112.85 490.498 113.503 492.337 114.084C504.852 118.046 518.435 119.553 531.484 120.015C543.318 120.401 555.16 119.607 566.835 117.643C566.705 115.164 566.515 112.672 566.29 110.169C560.754 111.103 555.182 111.767 549.575 112.162C536.362 113.108 523.084 112.499 510.013 110.347C502.136 109.078 493.571 107.548 486.453 103.621Z" fill="#69451A"/>
<path d="M487.129 134.474L487.663 134.687C488.849 135.162 490.154 135.601 491.411 135.992C503.927 139.954 517.509 141.461 530.559 141.923C542.392 142.309 554.234 141.515 565.91 139.551L567.096 139.361C567.167 136.878 567.203 134.343 567.203 131.757L565.767 132.018C560.105 132.991 554.415 133.675 548.697 134.07C535.484 135.014 522.206 134.409 509.134 132.267C503.783 131.483 498.495 130.317 493.309 128.779C491.281 128.123 489.299 127.331 487.378 126.407L487.485 129.218C487.485 129.313 487.485 129.74 487.485 130.405C487.485 131.069 487.283 132.789 487.129 134.474Z" fill="#69451A"/>
<path d="M483.57 155.235C484.757 155.817 486.061 156.339 487.343 156.813C488.398 157.205 489.466 157.572 490.534 157.904C503.049 161.867 516.632 163.373 529.681 163.836C541.718 164.24 553.765 163.421 565.637 161.392H565.732C565.732 160.835 565.732 160.265 565.791 159.708C565.981 157.798 566.147 155.805 566.301 153.717L565.934 153.776C559.926 154.866 553.863 155.618 547.772 156.03C534.559 156.973 521.281 156.368 508.209 154.227C501.471 153.041 494.176 151.854 487.734 148.984C486.88 148.616 486.038 148.213 485.219 147.797C484.792 150.158 484.235 152.697 483.57 155.235Z" fill="#69451A"/>
<path d="M565.672 175.769V178.035C565.672 179.838 565.672 181.593 565.672 183.456C553.856 185.306 541.896 186.072 529.941 185.745C516.892 185.283 503.286 183.776 490.794 179.814C486.141 178.425 481.72 176.354 477.674 173.669L477.188 173.206C477.84 170.834 478.492 168.461 479.133 165.994C486.962 171.486 499.466 174.618 508.505 176.125C520.781 178.14 533.24 178.796 545.659 178.082L548.032 177.928C553.709 177.537 559.363 176.86 564.972 175.899L565.672 175.769Z" fill="#69451A"/>
<path d="M565.449 193.676C565.342 196.393 565.188 199.014 564.963 201.47C551.829 203.337 538.57 204.174 525.305 203.973C511.509 203.546 497.167 202.051 483.952 198.113C479.609 196.879 475.434 195.118 471.52 192.869C472.231 190.497 472.991 187.958 473.773 185.23C481.923 191.007 492.837 192.858 502.647 194.388C515.619 196.383 528.763 197.019 541.866 196.286L544.416 196.132C550.348 195.728 556.386 195.04 562.305 194.068C562.46 194.044 564.109 193.901 565.449 193.676Z" fill="#69451A"/>
<path d="M540.431 116.399C540.431 116.399 541.819 155.143 539.245 160.92C536.671 166.697 481.117 171.668 481.117 171.668V181.229C481.117 181.229 532.839 192.131 556.6 182.154C580.788 172 569.388 110.978 569.388 110.978L540.431 116.399Z" fill="#DF6966"/>
<path d="M486.762 173.955C487.48 175.61 487.529 177.478 486.898 179.168C486.268 180.858 485.007 182.238 483.382 183.018C481.623 183.854 480.019 184.981 478.636 186.351C475.849 189.448 473.405 193.884 471.519 195.059C468.79 196.779 469.431 193.351 469.573 192.935C470.347 190.847 471.262 188.813 472.314 186.85C472.314 186.85 467.568 192.081 466.608 194.715C465.647 197.348 463.322 198.202 462.776 195.249C462.23 192.295 466.335 185.438 467.948 183.837C465.722 185.336 463.943 187.41 462.8 189.839C461.424 193.398 460.427 194.442 459.241 195.403C458.054 196.364 456.358 193.789 458.399 188.914C459.56 185.743 461.658 183.001 464.413 181.049C462.686 181.676 461.026 182.47 459.454 183.421C456.489 185.153 455.243 189.353 453.191 189.495C451.138 189.637 452.752 184.869 454.852 182.65C456.951 180.432 458.268 178.629 461.827 177.004C464.824 175.525 467.964 174.357 471.198 173.516C473.571 173.053 481.744 170.337 484.864 171.843C485.718 172.312 486.387 173.056 486.762 173.955Z" fill="#DF6966"/>
<path d="M477.773 172.066C477.773 172.066 470.513 170.88 468.199 171.841C465.886 172.802 461.924 172.861 462.398 174.463C462.873 176.064 467.737 175.779 467.737 175.779L477.773 172.066Z" fill="#DF6966"/>
<path d="M539.457 161.946C542.261 162.462 544.994 163.314 547.594 164.485C548.14 164.734 548.591 163.915 548.045 163.666C545.393 162.458 542.605 161.574 539.741 161.033C539.148 160.926 538.923 161.84 539.516 161.946H539.457Z" fill="#A53D31"/>
<path d="M542.862 162.386C545.22 161.261 547.73 160.486 550.312 160.085C550.905 159.99 550.881 159.053 550.312 159.148C547.565 159.573 544.896 160.396 542.387 161.592C541.842 161.853 542.387 162.647 542.886 162.386H542.862Z" fill="#A53D31"/>
<path d="M564.607 89.9895C569.969 98.6731 577.098 113.371 576.042 128.805H536.788C536.788 128.805 532.174 112.363 533.146 98.1867C533.763 89.1828 538.081 84.7936 543.016 82.7651C546.888 81.2201 551.182 81.0982 555.135 82.4209C559.088 83.7437 562.444 86.4255 564.607 89.9895Z" fill="#69451A"/>
<path d="M536.619 124.746L575.102 124.354C575.222 124.354 575.336 124.307 575.421 124.222C575.506 124.138 575.553 124.023 575.553 123.903C575.553 123.784 575.506 123.669 575.421 123.585C575.336 123.5 575.222 123.453 575.102 123.453L536.608 123.832C536.499 123.85 536.4 123.905 536.329 123.989C536.258 124.073 536.219 124.179 536.219 124.289C536.219 124.399 536.258 124.505 536.329 124.589C536.4 124.673 536.499 124.728 536.608 124.746H536.619Z" fill="white"/>
<path d="M533.206 73.2124C533.206 73.2124 512.565 86.7716 509.48 73.8293L512.458 64.8491L514.427 58.9178L515.803 54.7658L532.838 52.5712C531.735 59.4189 531.86 66.4083 533.206 73.2124Z" fill="#DF6966"/>
<path d="M528.581 58.6804C520.621 67.364 513.823 68.0995 511.652 67.0911L514.369 58.977L528.581 58.6804Z" fill="#201626"/>
<path d="M508.435 36.4404C508.435 36.4404 506.466 33.9967 504.876 31.6953C504.65 31.4434 504.488 31.1418 504.401 30.8151C504.314 30.4883 504.305 30.1457 504.376 29.815C504.446 29.4843 504.594 29.175 504.806 28.9122C505.019 28.6493 505.291 28.4405 505.6 28.3025C505.6 28.3025 499.206 19.9986 501.792 16.8787C504.378 13.7588 507.533 19.1207 507.533 19.1207C507.533 19.1207 504.983 10.4609 508.221 10.3423C511.46 10.2236 514.343 18.0887 514.343 18.0887C514.343 18.0887 512.741 11.5285 517.296 12.9521C521.852 14.3756 522.125 19.2512 522.125 19.2512C522.125 19.2512 533.987 19.9986 537.7 26.6061C537.7 26.6061 542.173 24.7555 542.991 27.7331C543.81 30.7107 541.449 30.9954 541.449 30.9954C541.449 30.9954 545.115 31.3631 543.335 34.4712C541.556 37.5792 540.322 36.3573 540.322 36.3573C540.322 36.3573 542.042 38.2435 539.349 44.9935C538.676 46.8734 537.478 48.5208 535.897 49.7403C534.316 50.9599 532.418 51.7003 530.428 51.8739L508.435 36.4404Z" fill="#4E372A"/>
<path d="M534.892 48.0102C534.797 48.6983 534.678 49.3151 534.536 49.9083C534.2 51.2208 533.646 52.4678 532.899 53.5976C531.612 55.4327 530.167 57.1515 528.581 58.7342C525.567 61.9371 521.095 62.7794 516.908 62.293C505.792 61.1067 505.626 53.3959 507.821 42.0551C509.185 35.0205 507.619 30.8567 509.695 28.2943L510.11 27.9621C513.368 25.3962 517.489 24.1852 521.617 24.5812C522.424 24.6524 523.171 24.7473 523.895 24.866L524.393 24.949H524.595L525.129 25.0439L525.508 25.1269L526.362 25.3167C535.105 27.5232 536.718 33.1818 536.434 38.5556C536.28 42.2805 535.176 45.7919 534.892 48.0102Z" fill="#DF6966"/>
<path d="M507.309 30.0623C507.309 30.0623 507.403 32.9569 508.175 33.1229C508.946 33.289 511.247 28.3778 512.671 28.4727C514.094 28.5676 514.379 30.5843 516.479 30.8453C518.578 31.1063 518.317 28.2829 523.027 29.837C527.736 31.391 523.098 34.7837 526.218 37.7732C529.338 40.7626 525.304 44.7247 528.448 45.306C531.592 45.8873 536.966 45.2467 537.511 39.2086C538.057 33.1704 533.075 22.2685 519.776 22.7549C508.874 23.1701 507.309 30.0623 507.309 30.0623Z" fill="#4E372A"/>
<path d="M515.412 39.7467L512.256 43.4123C512.177 43.4978 512.133 43.6101 512.133 43.7266C512.133 43.8432 512.177 43.9555 512.256 44.041C512.817 44.5573 513.315 45.1387 513.739 45.773C514.059 46.2356 514.818 45.773 514.498 45.2984C514.016 44.603 513.459 43.9625 512.837 43.3885C512.837 43.6021 512.837 43.8156 512.837 44.0291L516.111 40.3635C516.491 39.9246 515.839 39.3196 515.459 39.7467H515.412Z" fill="#201626"/>
<path d="M517.629 41.7203C517.629 42.3253 517.973 42.8235 518.436 42.8235C518.899 42.8235 519.266 42.349 519.266 41.744C519.304 41.6165 519.312 41.4819 519.289 41.3509C519.266 41.2199 519.212 41.0962 519.133 40.9895C519.053 40.8829 518.95 40.7963 518.831 40.7366C518.712 40.6769 518.581 40.6459 518.448 40.6459C518.315 40.6459 518.184 40.6769 518.065 40.7366C517.946 40.7963 517.843 40.8829 517.763 40.9895C517.684 41.0962 517.63 41.2199 517.607 41.3509C517.584 41.4819 517.591 41.6165 517.629 41.744V41.7203Z" fill="#201626"/>
<path d="M510.348 41.054C510.348 41.659 510.704 42.1572 511.154 42.1691C511.605 42.181 511.985 41.6827 511.997 41.0777C512.008 40.4727 511.641 39.9745 511.19 39.9745C510.739 39.9745 510.36 40.449 510.348 41.054Z" fill="#201626"/>
<path d="M523.337 45.6891C523.265 46.2941 522.257 46.6618 521.083 46.5076C519.908 46.3534 519.042 45.7484 519.113 45.1434C519.185 44.5384 520.205 44.1588 521.367 44.313C522.53 44.4672 523.42 45.0722 523.337 45.6891Z" fill="#A53D31"/>
<path d="M507.309 44.9439C507.771 45.3049 508.326 45.527 508.91 45.5845C510.096 45.7387 511.093 45.3591 511.164 44.7541C511.235 44.1491 510.369 43.5679 509.195 43.3781C508.638 43.2919 508.068 43.3574 507.546 43.5679L507.309 44.9439Z" fill="#A53D31"/>
<path d="M518.613 38.4194C519.337 38.2533 520.321 38.4193 520.523 39.2616C520.567 39.5167 520.707 39.7451 520.915 39.8997C521.122 40.0543 521.381 40.1231 521.638 40.092C521.892 40.051 522.121 39.9132 522.275 39.7075C522.43 39.5019 522.499 39.2443 522.469 38.9888C522.37 38.5476 522.184 38.1307 521.921 37.7626C521.659 37.3944 521.326 37.0823 520.941 36.8447C520.557 36.6071 520.128 36.4487 519.682 36.3789C519.235 36.3091 518.779 36.3293 518.34 36.4383C518.087 36.482 517.861 36.6205 517.707 36.8254C517.552 37.0304 517.482 37.2865 517.51 37.5415C517.548 37.797 517.685 38.0272 517.892 38.1825C518.098 38.3378 518.357 38.4059 518.613 38.3719V38.4194Z" fill="#201626"/>
<path d="M510.383 38.1875C510.645 37.8953 510.993 37.6932 511.376 37.6101C511.759 37.5271 512.159 37.5672 512.519 37.7248C512.758 37.8239 513.026 37.824 513.266 37.725C513.505 37.626 513.695 37.436 513.794 37.1969C513.893 36.9578 513.893 36.6891 513.794 36.45C513.695 36.2108 513.505 36.0208 513.266 35.9217C512.59 35.6293 511.844 35.5408 511.119 35.6673C510.394 35.7938 509.722 36.1296 509.185 36.6334C508.26 37.4876 509.458 39.006 510.371 38.1875H510.383Z" fill="#201626"/>
<path d="M530.512 50.6777C531.894 50.9059 533.313 50.6547 534.533 49.9659C534.197 51.2785 533.644 52.5255 532.896 53.6553C531.809 52.9372 530.975 51.8956 530.512 50.6777Z" fill="#201626"/>
<path d="M510.961 48.1116L518.767 48.3014C518.767 48.3014 517.723 53.7464 514.022 53.2482C510.855 52.8211 510.961 48.1116 510.961 48.1116Z" fill="white"/>
<path d="M513.192 55.323C513.562 55.547 513.987 55.6654 514.42 55.6654C514.852 55.6654 515.277 55.547 515.647 55.323C516.027 55.0502 515.576 54.4689 515.197 54.7418C514.938 54.9014 514.64 54.9859 514.336 54.9859C514.033 54.9859 513.735 54.9014 513.476 54.7418C513.049 54.5401 512.765 55.2163 513.192 55.4179V55.323Z" fill="#A53D31"/>
<path d="M527.347 47.4189C527.179 46.4979 527.222 45.5508 527.472 44.6488C527.723 43.7467 528.175 42.9133 528.794 42.2111C530.384 40.3368 533.254 37.5253 535.568 38.1541C538.96 39.0912 538.984 42.223 538.237 45.331C537.489 48.4391 534.891 52.2826 530.656 51.0608C529.808 50.8467 529.041 50.387 528.452 49.7392C527.863 49.0913 527.479 48.2842 527.347 47.4189Z" fill="#DF6966"/>
<path d="M531.534 47.3995C531.448 46.046 531.701 44.6924 532.27 43.4611C532.863 42.3934 534.334 40.9224 535.722 41.5749C536.184 41.8003 536.612 41.1122 536.137 40.8868C535.485 40.6441 534.773 40.6132 534.102 40.7985C533.431 40.9838 532.836 41.3758 532.4 41.9189C531.157 43.4571 530.557 45.4171 530.728 47.3876C530.728 47.4946 530.77 47.5972 530.846 47.6729C530.921 47.7485 531.024 47.791 531.131 47.791C531.238 47.791 531.341 47.7485 531.416 47.6729C531.492 47.5972 531.534 47.4946 531.534 47.3876V47.3995Z" fill="#201626"/>
<path d="M507.607 71.5443C505.991 77.9683 504.978 84.5292 504.582 91.1416C504.309 95.8867 503.585 102.162 506.658 106.231C509.529 110.027 514.962 109.719 518.521 107.144C523.088 103.894 525.413 97.9271 527.584 92.9803C530.55 86.2304 532.934 79.2432 535.318 72.256C535.508 71.7104 534.642 71.5087 534.452 72.0544C532.542 77.6417 530.633 83.2291 528.426 88.6623C526.398 93.6684 524.298 99.1727 520.953 103.467C517.987 107.287 511.652 110.514 507.69 106.077C504.428 102.423 505.187 96.1121 505.424 91.628C505.789 84.9069 506.802 78.2367 508.449 71.7104C508.459 71.6027 508.431 71.4949 508.368 71.4067C508.306 71.3185 508.213 71.2557 508.108 71.2298C508.003 71.2039 507.893 71.2166 507.796 71.2656C507.7 71.3147 507.624 71.3967 507.583 71.4968L507.607 71.5443Z" fill="white"/>
</g>
<rect width="316.286" height="169.513" transform="translate(0 209.823)" fill="#FF9247"/>
<g clip-path="url(#clip2)">
<path d="M53.7561 335.109C53.7561 335.109 51.1235 334.272 55.9321 327.805C60.7408 321.338 71.2558 311.553 71.2558 311.553C71.2558 311.553 76.2623 328.672 53.7561 335.109Z" fill="#201626"/>
<path d="M73.2812 319.813L57.3337 295.892L47.7012 300.32L61.564 330.496L73.2812 319.813Z" fill="#D3D3D3"/>
<path d="M59.0352 295.725C59.0352 295.725 59.0352 290.383 55.9917 287.264C52.9483 284.144 51.2288 280.812 48.7484 278.651C46.268 276.49 46.8919 280.888 47.6984 283.216C48.5049 285.544 49.3875 288.07 47.5766 288.405C45.7658 288.74 30.8378 283.46 28.4487 284.205C26.0596 284.951 28.1443 286.549 28.1443 286.549C28.1443 286.549 24.7966 285.392 23.5792 286.686C22.3618 287.979 24.2944 289.334 24.2944 289.334C24.2944 289.334 22.027 288.634 21.7075 290.292C21.3879 291.951 33.4856 298.083 32.9682 298.966C32.4508 299.849 27.14 294.264 25.3596 295.588C23.5792 296.912 27.8704 299.286 30.9595 301.568C34.1505 303.967 38.0807 305.173 42.068 304.977C45.9788 304.718 52.72 306.346 55.2613 302.633C56.7696 300.476 58.0352 298.159 59.0352 295.725Z" fill="#D3D3D3"/>
<path d="M24.3584 288.819C28.3149 290.219 32.2105 291.756 36.0148 293.384C36.4713 293.582 36.0148 294.266 35.5278 294.069C31.7743 292.445 27.9446 290.924 24.0389 289.503C23.5671 289.336 23.8867 288.575 24.3584 288.743V288.819Z" fill="#6B2636"/>
<path d="M28.3756 286.396C31.4583 287.153 34.4374 288.283 37.2472 289.759C37.6733 289.988 37.2472 290.672 36.7451 290.444C33.9908 289.001 31.0737 287.892 28.0561 287.142C27.5691 287.02 27.8887 286.275 28.3756 286.396Z" fill="#6B2636"/>
<path d="M34.3377 296.987C35.1391 293.652 36.6667 290.534 38.8115 287.857C39.1463 287.431 39.8007 287.857 39.4659 288.237C37.4004 290.794 35.9294 293.777 35.1594 296.972C35.0377 297.459 34.2312 297.474 34.3377 296.972V296.987Z" fill="#6B2636"/>
<path d="M40.6864 292.639C45.7993 291.772 50.2427 293.796 52.2362 297.935C52.4492 298.361 51.6884 298.772 51.4753 298.345C49.634 294.511 45.5102 292.593 40.8233 293.4C40.7224 293.414 40.62 293.387 40.5387 293.326C40.4574 293.265 40.4038 293.174 40.3896 293.073C40.3755 292.972 40.402 292.869 40.4634 292.788C40.5248 292.707 40.6159 292.653 40.7168 292.639H40.6864Z" fill="#6B2636"/>
<path d="M53.7558 335.11C53.7558 335.11 62.8861 342.612 73.1273 359.457C74.8967 362.431 76.9341 365.238 79.2141 367.842C87.3097 376.896 96.5465 380.244 103.379 375.298C104.472 374.497 105.449 373.549 106.285 372.483C109.025 369.166 112.068 362.987 115.111 356.14C121.518 341.394 127.285 323.514 127.285 323.514L119.037 304.051L107.062 296.823L106.088 299.501L101.781 314.08L92.2857 341.273L71.2099 311.553C71.2012 311.634 71.2012 311.716 71.2099 311.797C70.2086 316.753 68.1307 321.428 65.123 325.492C62.1062 329.513 58.2205 332.8 53.7558 335.11Z" fill="#4D36F2"/>
<path d="M79.2609 367.869C87.3564 376.923 96.5933 380.271 103.426 375.325C99.1193 371.445 89.7303 364.278 81.2239 366.971C80.5325 367.182 79.8723 367.484 79.2609 367.869Z" fill="#2B1473"/>
<path d="M92.8499 340.965C95.6998 346.174 97.9706 351.68 99.6215 357.384C99.8041 357.993 98.8455 358.251 98.6628 357.643C97.0409 352.023 94.8058 346.598 91.9977 341.467C91.6934 340.919 92.5455 340.417 92.8499 340.965Z" fill="#2B1473"/>
<path d="M95.5142 346.339C97.2185 347.754 98.7402 349.382 100.445 350.797C100.931 351.208 100.231 351.908 99.7445 351.497C98.0402 350.082 96.5185 348.454 94.8142 347.039C94.312 346.628 95.0272 345.928 95.5142 346.339Z" fill="#2B1473"/>
<path d="M248.704 337.92C248.704 337.92 251.519 337.022 246.376 330.083C241.232 323.144 229.956 312.659 229.956 312.659C229.956 312.659 224.569 331.011 248.704 337.92Z" fill="#201626"/>
<path d="M227.777 321.518L244.851 295.892L255.184 300.64L240.332 332.976L227.777 321.518Z" fill="#D3D3D3"/>
<path d="M244.458 296.124C244.458 296.124 244.245 291.087 247.106 288.058C249.967 285.03 251.443 281.835 253.725 279.735C256.008 277.635 255.506 281.85 254.806 283.95C254.106 286.05 253.284 288.515 255.049 288.85C256.814 289.185 270.647 283.798 272.99 284.437C275.334 285.076 273.371 286.643 273.371 286.643C273.371 286.643 276.414 285.456 277.631 286.643C278.849 287.83 277.023 289.169 277.023 289.169C277.023 289.169 279.123 288.515 279.458 290.037C279.792 291.558 268.547 297.645 269.064 298.513C269.582 299.38 274.436 293.948 276.095 295.134C277.753 296.321 273.812 298.695 270.966 300.932C268.063 303.27 264.437 304.524 260.71 304.478C257.012 304.356 250.743 306 248.201 302.637C246.715 300.611 245.46 298.427 244.458 296.124Z" fill="#D3D3D3"/>
<path d="M276.964 288.741C273.266 290.171 269.644 291.784 266.083 293.382C265.657 293.58 266.083 294.204 266.57 294.006C270.07 292.378 273.646 290.841 277.222 289.441C277.664 289.273 277.344 288.573 276.903 288.741H276.964Z" fill="#6B2636"/>
<path d="M273.129 286.566C270.233 287.38 267.448 288.545 264.835 290.035C264.44 290.264 264.927 290.888 265.337 290.659C267.87 289.21 270.567 288.071 273.372 287.266C273.829 287.144 273.509 286.429 273.053 286.566H273.129Z" fill="#6B2636"/>
<path d="M267.756 296.717C266.916 293.596 265.393 290.701 263.298 288.241C262.963 287.845 262.37 288.241 262.689 288.606C264.706 290.964 266.177 293.739 266.996 296.732C267.117 297.204 267.878 297.189 267.756 296.732V296.717Z" fill="#6B2636"/>
<path d="M261.655 292.789C256.816 292.089 252.677 294.128 250.896 298.085C250.714 298.495 251.444 298.845 251.627 298.435C252.494 296.616 253.945 295.141 255.749 294.244C257.553 293.348 259.606 293.082 261.579 293.489C261.625 293.494 261.671 293.49 261.715 293.477C261.76 293.464 261.801 293.442 261.837 293.413C261.91 293.355 261.957 293.27 261.967 293.177C261.977 293.084 261.95 292.991 261.891 292.918C261.833 292.846 261.748 292.799 261.655 292.789Z" fill="#6B2636"/>
<path d="M248.703 337.927C248.703 337.927 238.903 345.962 227.947 364.055C226.027 367.246 223.821 370.256 221.358 373.049C212.699 382.757 202.793 386.333 195.489 381.022C194.342 380.149 193.319 379.125 192.445 377.979C189.554 374.372 186.221 367.768 183.041 360.433C176.178 344.623 169.954 325.434 169.954 325.434L178.689 304.587L185.111 289.263L187.621 295.502L195.565 315.284L207.282 344.516L229.956 312.667C229.948 312.758 229.948 312.85 229.956 312.941C231.035 318.23 233.264 323.217 236.484 327.549C239.717 331.891 243.896 335.44 248.703 337.927Z" fill="#4D36F2"/>
<path d="M221.359 373.044C212.701 382.753 202.794 386.329 195.49 381.018C200.055 376.864 210.251 369.194 219.305 372.085C220.031 372.309 220.722 372.632 221.359 373.044Z" fill="#2B1473"/>
<path d="M206.797 344.208C203.743 349.788 201.314 355.687 199.553 361.8C199.355 362.454 200.375 362.728 200.573 362.073C202.319 356.08 204.712 350.293 207.71 344.817C208.044 344.224 207.116 343.676 206.797 344.285V344.208Z" fill="#2B1473"/>
<path d="M203.948 349.941C202.122 351.463 200.479 353.198 198.653 354.72C198.135 355.146 198.881 355.907 199.413 355.465C201.239 353.943 202.868 352.209 204.694 350.687C205.226 350.246 204.466 349.5 203.948 349.941Z" fill="#2B1473"/>
<path d="M178.098 361.963L177.854 363.317L177.032 367.882L175.511 376.769C166.663 380.102 157.204 381.501 147.77 380.871C138.336 380.241 129.146 377.597 120.82 373.117C121.477 371.443 121.867 369.677 121.977 367.882C122.211 365.241 122.282 362.589 122.19 359.939C122.19 358.782 122.098 358.067 122.098 358.067L178.098 361.963Z" fill="#D3D3D3"/>
<path d="M177.852 363.322L177.03 367.887C162.102 370.139 143.43 369.926 121.944 367.887C122.178 365.246 122.249 362.593 122.157 359.944L177.852 363.322Z" fill="#6B2636"/>
<path d="M116.97 381.153C107.381 392.117 101.824 406.027 101.221 420.581C100.247 452.963 109.027 576.496 110.534 600.143C112.055 622.969 116.164 676.229 118.142 700.576C118.411 703.962 119.995 707.108 122.555 709.341C125.114 711.574 128.446 712.715 131.838 712.522L151.62 711.441C155.031 711.237 158.225 709.696 160.507 707.152C162.789 704.607 163.975 701.266 163.809 697.852C161.07 644.805 151.072 446.008 151.635 429.604C152.335 410.659 150.95 387.59 150.95 387.59L116.97 381.153Z" fill="#201626"/>
<path d="M208.334 464.652C203.662 446.711 203.069 437.824 199.417 424.6C196.373 423.352 189.404 405.122 186.497 403.509C182.389 401.227 178.402 398.762 174.324 396.494C171.28 394.79 168.237 393.025 165.193 391.153C159.106 387.333 152.883 382.875 148.774 376.864C145.609 381.657 143.646 390.255 143.737 404.468L198.519 703.105C198.921 705.312 200.083 707.309 201.803 708.749C203.524 710.189 205.695 710.981 207.938 710.987C216.064 711.063 228.725 710.911 237.475 709.374C239.931 708.941 242.123 707.571 243.588 705.552C245.053 703.533 245.677 701.024 245.327 698.555C239.894 660.664 215.669 492.728 208.334 464.652Z" fill="#201626"/>
<path d="M111.626 391.194C115.504 384.7 118.571 377.755 120.757 370.514C120.757 370.514 142.061 380.435 176.695 374.774C185.831 390.623 193.438 407.306 199.414 424.595C199.414 424.595 119.326 405.559 111.626 391.194Z" fill="#201626"/>
<path d="M168.602 385.448C169.895 402.339 182.799 416.339 198.184 422.091C198.838 422.334 199.112 421.315 198.473 421.071C183.56 415.41 170.884 401.821 169.667 385.448C169.667 384.763 168.556 384.763 168.602 385.448Z" fill="#63636C"/>
<path d="M133.021 385.14C132.961 389.163 132.096 393.134 130.478 396.818C128.859 400.502 126.52 403.825 123.597 406.59C120.674 409.356 117.227 411.508 113.459 412.92C109.691 414.333 105.679 414.976 101.658 414.813C101.517 414.813 101.381 414.869 101.282 414.969C101.182 415.069 101.126 415.205 101.126 415.346C101.126 415.487 101.182 415.623 101.282 415.723C101.381 415.822 101.517 415.879 101.658 415.879C105.818 416.037 109.967 415.363 113.862 413.896C117.757 412.428 121.32 410.197 124.341 407.334C127.362 404.47 129.78 401.032 131.454 397.22C133.127 393.409 134.022 389.302 134.086 385.14C134.086 384.455 133.036 384.47 133.021 385.14Z" fill="#63636C"/>
<path d="M118.93 380.533C122.186 383.789 127.634 384.261 131.941 385.098C137.472 386.141 143.062 386.847 148.679 387.213C159.331 387.868 170.41 386.894 180.346 382.648C180.97 382.374 180.438 381.461 179.814 381.735C170.257 385.813 159.636 386.757 149.379 386.194C143.994 385.87 138.633 385.224 133.325 384.261C129.004 383.485 123.054 383.12 119.782 379.833C119.295 379.346 118.549 380.107 119.036 380.594L118.93 380.533Z" fill="#63636C"/>
<path d="M105.983 303.93C106.349 311.006 109.909 319.71 112.907 326.375C114.385 329.921 115.501 333.607 116.24 337.377C117.945 346.087 119.054 354.903 119.557 363.764C145.426 364.89 174.339 367.903 182.13 365.164L182.982 360.462C183.804 355.896 185.067 349.064 186.026 344.27C187.805 334.155 188.822 323.921 189.069 313.654C189.069 312.132 189.069 310.61 189.069 309.164C189.098 304.563 188.633 299.972 187.684 295.469C186.071 288.089 183.119 282.291 178.858 280.008C176.713 278.821 171.767 278.593 166.106 278.821C160.019 279.05 152.974 279.826 147.77 280.495C143.205 281.089 140.009 281.591 140.009 281.591L138.244 282.428L136.342 283.25C131.198 285.441 121.535 289.337 112.861 292.091C111.692 292.408 110.597 292.955 109.641 293.699C108.684 294.444 107.886 295.371 107.292 296.428C106.167 298.758 105.714 301.356 105.983 303.93Z" fill="#4D36F2"/>
<path d="M140.781 273.04C140.781 273.04 138.408 264.99 127.603 258.979C116.799 252.968 115.43 234.632 126.949 225.501C129.901 223.173 132.945 222.595 134.466 221.027C144.297 210.984 157.551 217.71 163.805 222.914C171.261 229.001 166.97 236.047 166.057 242.438C165.144 248.829 140.781 273.04 140.781 273.04Z" fill="white"/>
<path d="M131 225.148L124.913 231.798C107.566 223.17 92.9571 246.574 92.9571 246.574C89.5301 244.864 86.466 242.508 83.9333 239.635L86.6115 235.45L82.792 238.205C81.065 235.912 79.7471 233.338 78.8964 230.596L84.6789 225.042L78.2877 228.39C77.9289 226.859 77.7602 225.29 77.7856 223.718C103.274 197.499 131 225.148 131 225.148Z" fill="white"/>
<path d="M129.083 223.809C127.503 224.243 126.052 225.054 124.854 226.173C123.656 227.291 122.747 228.683 122.205 230.23C122.022 230.778 121.14 230.535 121.338 229.987C121.921 228.294 122.905 226.768 124.206 225.539C125.507 224.309 127.087 223.413 128.809 222.926C128.924 222.903 129.043 222.925 129.141 222.987C129.24 223.049 129.312 223.146 129.341 223.259C129.37 223.372 129.355 223.492 129.299 223.594C129.242 223.697 129.149 223.773 129.038 223.809H129.083Z" fill="#201626"/>
<path d="M137.617 256.556L137.769 259.599L137.936 261.867V264.164L139.047 285.925C143.795 290.886 164.734 294.081 162.634 281.923L160.092 275.243L157.779 269.156L157.308 267.954L155.436 262.795L137.617 256.556Z" fill="#D3D3D3"/>
<path d="M136.799 283.049C136.799 283.049 145.016 299.437 159.624 296.607C168.998 294.796 162.668 281.877 162.668 281.877C162.668 281.877 155.059 280.812 148.212 280.355C143.646 280.949 140.436 281.451 140.436 281.451L138.686 282.227L136.799 283.049Z" fill="#D3D3D3"/>
<path d="M142.763 264.589C152.046 276.368 159.502 279.807 161.617 279.031L157.372 267.892L142.763 264.589Z" fill="#201626"/>
<path d="M131.852 253.877C132.869 256.048 134.208 258.054 135.823 259.827C136.432 260.496 137.117 261.151 137.893 261.866L139.125 263.022L140.982 264.727C144.81 268.017 149.74 269.74 154.784 269.551C155.806 269.453 156.822 269.3 157.827 269.094C166.775 267.268 170.001 261.485 166.212 248.201C163.625 239.071 165.238 233.349 162.21 230.184L161.662 229.803C157.069 226.753 151.473 225.602 146.049 226.593C119.1 231.295 128.245 246.71 131.852 253.877Z" fill="#D3D3D3"/>
<path d="M135.824 259.831C136.433 260.501 137.117 261.155 137.894 261.87L137.939 264.168C138.372 263.867 138.752 263.497 139.065 263.072C139.776 262.079 140.259 260.941 140.48 259.74C139.571 259.517 138.621 259.517 137.711 259.74C137.102 259.603 136.417 259.755 135.824 259.831Z" fill="#201626"/>
<path d="M158.754 251.807C159.227 251.711 159.646 251.437 159.923 251.042C160.2 250.647 160.316 250.161 160.246 249.683C160.175 249.206 159.925 248.773 159.546 248.475C159.166 248.176 158.687 248.035 158.207 248.079L157.324 246.557C157.303 246.506 157.271 246.461 157.23 246.424C157.19 246.387 157.141 246.359 157.089 246.342C157.037 246.326 156.981 246.32 156.927 246.327C156.872 246.334 156.82 246.352 156.773 246.381C156.726 246.41 156.687 246.449 156.656 246.495C156.626 246.54 156.606 246.592 156.597 246.647C156.589 246.701 156.593 246.756 156.608 246.809C156.623 246.862 156.649 246.911 156.685 246.953L157.72 248.657C157.757 248.719 157.811 248.769 157.876 248.801C157.94 248.834 158.013 248.847 158.085 248.84C158.085 248.84 159.439 248.748 159.607 249.768C159.774 250.787 158.617 251.076 158.572 251.092C158.523 251.104 158.477 251.126 158.437 251.157C158.396 251.188 158.363 251.226 158.339 251.271C158.315 251.315 158.3 251.364 158.295 251.414C158.291 251.465 158.297 251.515 158.313 251.563C158.341 251.653 158.403 251.728 158.485 251.773C158.567 251.819 158.664 251.831 158.754 251.807Z" fill="#201626"/>
<path d="M159.577 225.602C159.577 225.602 167.627 229.893 165.177 232.069C162.727 234.245 149.457 223.38 141.62 239.404C139.657 243.391 142.594 247.21 136.097 249.889C129.599 252.567 128.153 252.019 125.901 246.343C123.649 240.667 128.534 226.667 142.503 224.187C156.472 221.706 159.577 225.602 159.577 225.602Z" fill="white"/>
<path d="M151.755 229.16C151.755 229.16 152.637 242.855 138.409 245.625C124.181 248.394 132.383 226.725 151.755 229.16Z" fill="white"/>
<path d="M151.421 230.368C149.473 225.514 143.812 224.86 139.247 224.707C139.138 224.707 139.033 224.664 138.956 224.587C138.879 224.51 138.836 224.405 138.836 224.296C138.836 224.188 138.879 224.083 138.956 224.006C139.033 223.929 139.138 223.886 139.247 223.886C144.223 224.038 150.158 224.905 152.258 230.155C152.455 230.642 151.664 230.855 151.466 230.368H151.421Z" fill="#C6781C"/>
<path d="M131.196 236.442C133.385 236.422 135.544 236.945 137.481 237.964C138.394 241.981 143.066 252.207 138.698 254.002C132.2 256.559 133.053 261.398 127.864 250.472C125.901 246.333 125.246 240.444 126.753 236.777C128.229 236.609 129.705 236.503 131.196 236.442Z" fill="white"/>
<path d="M150.539 246.593C150.985 246.426 151.473 246.407 151.93 246.539C152.388 246.67 152.791 246.945 153.081 247.323C153.175 247.44 153.313 247.515 153.463 247.531C153.612 247.546 153.762 247.502 153.879 247.407C153.996 247.312 154.071 247.175 154.087 247.025C154.102 246.875 154.058 246.725 153.963 246.608C153.516 246.047 152.902 245.643 152.21 245.454C151.518 245.265 150.783 245.302 150.113 245.558C149.428 245.817 149.9 246.852 150.585 246.593H150.539Z" fill="#201626"/>
<path d="M160.126 246.776C160.324 246.334 160.651 245.963 161.064 245.711C161.477 245.458 161.956 245.336 162.439 245.36C163.169 245.36 163.276 244.234 162.546 244.234C161.813 244.191 161.084 244.374 160.459 244.758C159.833 245.141 159.34 245.707 159.046 246.38C158.726 247.034 159.806 247.43 160.126 246.776Z" fill="#201626"/>
<path d="M160.658 261.469C160.191 261.81 159.637 262.011 159.061 262.049C158.484 262.087 157.908 261.96 157.401 261.682C156.869 261.348 157.401 260.541 157.934 260.861C158.298 261.033 158.704 261.101 159.105 261.055C159.505 261.009 159.885 260.852 160.201 260.602C160.749 260.282 161.19 261.15 160.658 261.469Z" fill="#6B2636"/>
<path d="M145.897 252.75C146.064 253.556 147.418 253.936 148.94 253.602C150.462 253.267 151.573 252.369 151.405 251.578C151.238 250.787 149.883 250.391 148.362 250.726C146.84 251.06 145.729 251.989 145.897 252.75Z" fill="#6B2636"/>
<path d="M161.907 250.195C162.074 250.986 163.428 251.366 164.95 251.047C165.592 250.919 166.2 250.654 166.73 250.271C166.563 249.601 166.38 248.901 166.183 248.201C166.183 248.201 166.183 248.201 166.183 248.11C165.574 247.997 164.95 247.997 164.341 248.11C162.835 248.49 161.739 249.403 161.907 250.195Z" fill="#6B2636"/>
<path d="M150.962 242.582C150.377 242.429 149.755 242.514 149.233 242.819C148.711 243.125 148.331 243.625 148.177 244.21C147.979 245.427 146.032 245.336 146.229 244.088C146.318 243.542 146.514 243.02 146.805 242.55C147.097 242.08 147.479 241.673 147.929 241.352C148.379 241.031 148.888 240.802 149.427 240.679C149.966 240.555 150.524 240.54 151.068 240.634C152.301 240.832 152.195 242.779 150.962 242.582Z" fill="#201626"/>
<path d="M162.543 242.86C161.63 242.099 160.428 241.003 159.165 241.612C157.902 242.221 157.141 240.425 158.267 239.877C160.276 238.903 162.041 239.953 163.608 241.216C164.582 242.008 163.532 243.636 162.543 242.86Z" fill="#201626"/>
<path d="M162.802 253.671C159.471 254.7 155.973 255.072 152.5 254.767C152.5 254.767 154.311 260.641 159.241 259.606C163.289 258.678 162.802 253.671 162.802 253.671Z" fill="white"/>
<path d="M143.203 255.871C143.308 254.847 143.179 253.812 142.826 252.845C142.472 251.877 141.904 251.003 141.164 250.287C139.246 248.385 135.853 245.554 133.372 246.452C129.705 247.776 129.979 251.215 131.059 254.548C132.14 257.88 135.336 261.867 139.885 260.163C140.798 259.852 141.6 259.279 142.19 258.516C142.779 257.753 143.132 256.833 143.203 255.871Z" fill="#D3D3D3"/>
<path d="M138.697 257.666L143.14 263.539C143.194 263.612 143.228 263.697 143.239 263.787C143.249 263.877 143.236 263.968 143.201 264.051C143.165 264.134 143.109 264.206 143.037 264.261C142.965 264.315 142.88 264.35 142.79 264.361L136.11 265.122C136.024 265.131 135.938 265.119 135.859 265.086C135.78 265.053 135.71 265.002 135.655 264.935C135.601 264.869 135.564 264.79 135.548 264.706C135.531 264.621 135.536 264.534 135.562 264.452L137.814 257.803C137.843 257.715 137.896 257.637 137.966 257.578C138.037 257.518 138.122 257.479 138.214 257.465C138.305 257.451 138.398 257.462 138.483 257.497C138.569 257.533 138.642 257.591 138.697 257.666Z" fill="white"/>
<path d="M138.106 256.275C138.118 254.825 137.762 253.396 137.072 252.121C136.372 250.995 134.713 249.504 133.267 250.295C132.78 250.569 132.278 249.854 132.765 249.595C133.448 249.283 134.213 249.199 134.947 249.355C135.682 249.511 136.346 249.9 136.843 250.462C138.267 252.035 139.029 254.095 138.974 256.214C138.955 256.316 138.901 256.407 138.822 256.473C138.743 256.538 138.643 256.574 138.54 256.574C138.437 256.574 138.337 256.538 138.258 256.473C138.179 256.407 138.125 256.316 138.106 256.214V256.275Z" fill="#201626"/>
<path d="M147.828 238.857C147.04 241.607 145.905 244.246 144.45 246.709C141.848 251.472 143.233 254.698 145.546 258.548C147.859 262.398 141.437 266.796 141.437 266.796C141.437 266.796 143.765 260.481 140.691 255.428C137.617 250.376 137.283 242.768 140.25 241.322C142.692 240.262 145.23 239.437 147.828 238.857Z" fill="white"/>
<path d="M138.074 247.642C136.704 246.235 134.96 245.25 133.047 244.805C131.135 244.36 129.135 244.473 127.285 245.131C126.767 245.299 126.554 244.507 127.056 244.325C129.044 243.642 131.183 243.538 133.228 244.022C135.272 244.507 137.137 245.562 138.606 247.064C138.971 247.444 138.393 248.023 138.028 247.642H138.074Z" fill="#C6781C"/>
<path d="M130.254 285.74C130.236 288.49 129.47 291.182 128.038 293.529C126.606 295.877 124.562 297.789 122.125 299.063C119.688 300.336 116.95 300.922 114.205 300.757C111.461 300.592 108.813 299.683 106.546 298.127C106.655 297.779 106.787 297.438 106.941 297.107C109.01 298.585 111.441 299.475 113.975 299.682C116.509 299.889 119.052 299.406 121.334 298.284C123.616 297.162 125.551 295.443 126.934 293.309C128.317 291.175 129.096 288.707 129.189 286.166L130.254 285.74Z" fill="#2B1473"/>
<path d="M189.449 299.898C189.141 300.03 188.826 300.147 188.506 300.248C186.96 300.761 185.341 301.023 183.712 301.024C182.582 301.043 181.453 300.931 180.349 300.689C177.005 299.917 174.021 298.037 171.88 295.355C169.739 292.672 168.568 289.345 168.556 285.913C168.551 283.438 169.163 281.001 170.336 278.822H171.539C170.416 280.746 169.766 282.908 169.642 285.132C169.519 287.356 169.924 289.577 170.826 291.614C171.727 293.65 173.099 295.444 174.829 296.847C176.559 298.25 178.597 299.222 180.775 299.685C181.741 299.886 182.726 299.988 183.712 299.989C185.295 299.977 186.863 299.699 188.354 299.167C188.597 299.076 188.825 299 189.054 298.893L189.449 299.898Z" fill="#2B1473"/>
<path d="M158.664 312.66C158.664 315.67 157.772 318.612 156.099 321.114C154.427 323.617 152.051 325.567 149.27 326.719C146.49 327.871 143.43 328.172 140.478 327.585C137.526 326.998 134.815 325.549 132.687 323.42C130.559 321.292 129.109 318.581 128.522 315.629C127.935 312.677 128.236 309.618 129.388 306.837C130.54 304.056 132.49 301.68 134.993 300.008C137.495 298.336 140.437 297.443 143.447 297.443C147.483 297.443 151.353 299.046 154.207 301.9C157.061 304.754 158.664 308.624 158.664 312.66ZM157.599 312.66C157.599 309.873 156.772 307.149 155.224 304.832C153.676 302.514 151.475 300.708 148.9 299.642C146.325 298.575 143.492 298.296 140.759 298.84C138.025 299.384 135.515 300.726 133.544 302.696C131.573 304.667 130.231 307.178 129.687 309.911C129.144 312.645 129.423 315.478 130.489 318.053C131.556 320.628 133.362 322.828 135.679 324.377C137.996 325.925 140.721 326.751 143.508 326.751C147.244 326.747 150.826 325.261 153.467 322.62C156.109 319.978 157.595 316.396 157.599 312.66Z" fill="#2B1473"/>
<path d="M193.829 324.214C192.934 327.735 190.722 330.78 187.65 332.72C185.411 334.123 182.821 334.867 180.179 334.866C177.323 334.875 174.533 334.003 172.19 332.37C169.89 330.785 168.113 328.551 167.085 325.954C166.057 323.357 165.825 320.513 166.417 317.783C167.009 315.053 168.399 312.56 170.41 310.622C172.422 308.684 174.964 307.387 177.714 306.897C178.533 306.756 179.363 306.685 180.194 306.684C182.862 306.683 185.475 307.443 187.726 308.875C187.801 308.921 187.885 308.948 187.973 308.954C188.06 308.96 188.148 308.944 188.227 308.908C188.307 308.872 188.377 308.816 188.43 308.747C188.483 308.678 188.519 308.596 188.533 308.51C188.551 308.407 188.537 308.301 188.494 308.206C188.45 308.111 188.379 308.031 188.29 307.977C185.872 306.434 183.062 305.615 180.194 305.618C179.533 305.62 178.872 305.661 178.216 305.74C175.086 306.19 172.175 307.604 169.886 309.786C167.597 311.967 166.044 314.807 165.443 317.911C164.843 321.015 165.224 324.229 166.534 327.107C167.843 329.984 170.017 332.383 172.753 333.968C175.008 335.23 177.549 335.893 180.133 335.893C182.717 335.893 185.258 335.23 187.513 333.968C190.85 332.118 193.37 329.082 194.574 325.462L193.829 324.214Z" fill="#2B1473"/>
<path d="M121.945 328.792C121.519 328.77 121.093 328.77 120.667 328.792C120.667 329.142 120.819 329.492 120.88 329.827H121.945C125.525 329.764 128.995 331.067 131.649 333.47C134.304 335.873 135.944 339.196 136.236 342.765C136.529 346.333 135.452 349.88 133.224 352.683C130.997 355.486 127.785 357.336 124.243 357.857C124.243 358.222 124.136 358.588 124.091 358.953C127.76 358.269 131.05 356.26 133.335 353.308C135.62 350.356 136.741 346.668 136.483 342.944C136.226 339.22 134.609 335.721 131.939 333.111C129.27 330.502 125.735 328.965 122.006 328.792H121.945Z" fill="#2B1473"/>
<path d="M175.616 355.601C175.618 357.922 175.043 360.207 173.942 362.251L175.19 362.129C176.185 360.097 176.705 357.864 176.712 355.601C176.757 353.339 176.297 351.096 175.366 349.034C174.434 346.972 173.055 345.144 171.328 343.683C169.602 342.221 167.571 341.163 165.383 340.585C163.196 340.008 160.907 339.925 158.684 340.343C156.461 340.762 154.359 341.67 152.531 343.004C150.703 344.337 149.195 346.061 148.118 348.05C147.04 350.039 146.42 352.243 146.301 354.503C146.183 356.762 146.57 359.019 147.434 361.11H148.606C147.846 359.357 147.458 357.466 147.464 355.555C147.464 351.818 148.949 348.234 151.592 345.592C154.234 342.949 157.818 341.464 161.556 341.464C165.293 341.464 168.877 342.949 171.519 345.592C174.162 348.234 175.647 351.818 175.647 355.555L175.616 355.601Z" fill="#2B1473"/>
<path d="M182.678 361.407C172.387 362.221 162.047 362.221 151.756 361.407C141.104 360.768 130.452 360.418 119.8 359.718C119.115 359.718 119.115 360.737 119.8 360.783C130.452 361.483 141.104 361.833 151.756 362.472C162.047 363.286 172.387 363.286 182.678 362.472C183.347 362.472 183.347 361.346 182.678 361.407Z" fill="#2B1473"/>
<path d="M118.825 325.126C121.876 336.605 123.26 348.464 122.933 360.338C122.933 360.479 122.989 360.615 123.089 360.715C123.189 360.815 123.325 360.871 123.466 360.871C123.607 360.871 123.743 360.815 123.843 360.715C123.942 360.615 123.999 360.479 123.999 360.338C124.317 348.367 122.918 336.411 119.844 324.837C119.796 324.714 119.703 324.614 119.585 324.555C119.467 324.497 119.331 324.484 119.204 324.52C119.077 324.556 118.968 324.638 118.898 324.75C118.828 324.862 118.802 324.996 118.825 325.126Z" fill="#2B1473"/>
<path d="M190.33 314.812L189.675 313.777C189.173 313.595 188.656 313.473 188.154 313.336C191.197 318.586 194.515 323.76 194.393 329.984C194.241 336.542 190.68 341.336 186.632 346.175C184.984 347.984 183.725 350.113 182.934 352.429C182.273 354.996 182.057 357.657 182.295 360.296C182.295 360.966 183.391 360.981 183.36 360.296C183.066 357.472 183.362 354.617 184.228 351.912C185.308 349.051 187.682 346.784 189.569 344.44C192.947 340.194 195.367 335.584 195.473 330.06C195.58 324.536 193.115 319.514 190.33 314.812Z" fill="#2B1473"/>
<path d="M178.585 367H122.814C116.379 375.37 101.707 394.119 94.5001 402.154C85.4911 412.198 200.893 426.188 223.201 420.807C245.509 415.426 182.875 383.86 181.588 382.783C180.558 381.922 179.157 371.902 178.585 367Z" fill="white"/>
</g>
<rect width="316.286" height="169.513" transform="translate(316.285 209.823)" fill="#DC1AA3"/>
<g clip-path="url(#clip3)">
<path d="M465.875 341.752C465.875 341.752 440.644 393.59 416.353 388.739C396.404 384.772 382.757 317.347 382.757 317.347L395.253 313.817L416.168 350.954L448.044 294.105C448.044 294.105 466.656 328.333 465.875 341.752Z" fill="#FFE7E7"/>
<path d="M390.105 308.523C390.105 308.523 389.444 304.385 384.175 302.746C378.907 301.106 377.106 298.145 374.3 298.965C371.494 299.784 375.915 304.544 375.915 304.544C375.915 304.544 386.968 309.528 390.105 308.523Z" fill="#A53D31"/>
<path d="M395.254 313.816C395.254 313.816 394.645 308.659 390.925 307.126C387.206 305.592 368.766 302.089 365.033 299.194C361.3 296.298 357.805 292.755 356.706 294.104C355.608 295.452 362.849 303.358 365.258 306.637C367.667 309.915 382.758 317.345 382.758 317.345C382.758 317.345 393.44 316.79 395.254 313.816Z" fill="#FFE7E7"/>
<path d="M448.189 291.552L419.755 336.185C419.755 336.185 434.898 363.512 445.118 373.335V371.55C445.118 371.55 459.599 319.262 448.189 291.552Z" fill="#00B87C"/>
<path d="M422.709 333.212C429.91 343.974 436.303 355.238 443.505 366C443.862 366.528 443.002 367.031 442.644 366.502C435.443 355.74 429.049 344.476 421.848 333.715C421.491 333.186 422.351 332.684 422.709 333.212Z" fill="#2B1473"/>
<path d="M416.327 351.391C416.316 355.843 416.604 360.291 417.188 364.704C417.254 365.207 416.446 365.207 416.38 364.704C415.796 360.291 415.509 355.843 415.52 351.391C415.537 351.297 415.587 351.211 415.66 351.15C415.734 351.088 415.827 351.055 415.923 351.055C416.019 351.055 416.113 351.088 416.186 351.15C416.26 351.211 416.31 351.297 416.327 351.391Z" fill="#A53D31"/>
<path d="M416.353 355.79L419.688 360.669C419.98 361.092 419.278 361.502 418.987 361.079L415.651 356.2C415.36 355.764 416.061 355.354 416.353 355.79Z" fill="#A53D31"/>
<path d="M443.291 368.086C468.8 382.893 545.67 368.086 545.67 368.086C545.67 368.086 547.867 296.933 541.54 289.582C536.51 283.765 522.094 276.071 509.558 270.756L508.473 270.293L507.864 270.042C505.719 269.156 503.641 268.35 501.695 267.649L481.071 272.792L478.04 274.365L477.51 274.643L476.822 275.013C468.8 279.23 451.922 288.234 448.189 291.552C443.265 295.862 442.974 314.635 445.542 329.403C448.11 344.17 443.291 368.086 443.291 368.086Z" fill="#00B87C"/>
<path d="M487.795 286.57C499.325 283.291 505.732 273.838 507.863 270.004C505.719 269.118 503.641 268.312 501.695 267.611L481.071 272.794L478.039 274.367L477.51 274.645L476.821 275.015C475.471 280.33 476.596 289.756 487.795 286.57Z" fill="#2B1473"/>
<path d="M446.957 431.758L447.738 431.97C453.095 433.371 458.532 434.444 464.02 435.182L464.827 435.301C471.849 436.236 478.924 436.717 486.007 436.742H486.974C490.018 436.742 493.023 436.597 495.936 436.359C502.223 435.83 507.849 435.592 512.84 435.526H513.66C523.178 435.447 530.393 435.949 535.701 436.187H536.522C541.155 436.372 544.239 436.306 546.092 435.314C554.498 430.819 546.092 354.193 546.092 354.193H545.973L532.59 353.042L531.796 352.963L510.616 351.033L509.795 350.954L492.745 349.407L491.925 349.328L469.514 347.292L468.719 347.212L453.165 345.798L452.358 345.718L446.11 345.15C445.368 351.35 444.561 358.608 443.581 366.514C443.581 367.07 443.449 367.625 443.37 368.18C441.212 385.367 438.233 405.357 433.494 423.865C432.793 426.43 438.3 429.352 446.957 431.758Z" fill="#00B87C"/>
<path d="M446.07 328.609C446.402 342.62 445.328 356.629 442.867 370.426C442.761 371.047 441.795 370.783 441.914 370.161C444.349 356.45 445.409 342.53 445.077 328.609C445.097 328.491 445.157 328.385 445.248 328.307C445.339 328.23 445.455 328.188 445.574 328.188C445.693 328.188 445.809 328.23 445.9 328.307C445.99 328.385 446.051 328.491 446.07 328.609Z" fill="#2B1473"/>
<path d="M531.796 352.91C532.365 358.648 533.027 364.372 533.688 370.097C534.35 375.821 535.012 381.81 535.581 387.667C537.104 403.717 537.845 420.177 535.648 436.16H536.468C537.155 431.294 537.597 426.396 537.792 421.485C538.427 404.206 536.468 387.112 534.509 369.925C533.874 364.267 533.185 358.595 532.656 352.936C532.484 351.152 532.325 349.38 532.166 347.648C530.366 326.746 530.141 305.104 536.296 284.93L535.621 284.454C532.727 294.078 531.016 304.018 530.525 314.055C529.935 327.02 530.36 340.011 531.796 352.91Z" fill="#2B1473"/>
<path d="M509.637 344.092C509.637 346.366 509.637 348.64 509.769 350.9C510.021 358.278 510.59 365.615 511.278 372.966C511.477 375.068 511.689 377.183 511.901 379.298C513.78 397.887 515.872 417.017 512.788 435.512H513.608C514.877 427.398 515.387 419.184 515.131 410.975C514.853 399.288 513.542 387.654 512.377 376.033C512.284 374.988 512.179 373.944 512.086 372.9C511.384 365.602 510.842 358.357 510.59 350.993C510.471 347.582 510.418 344.184 510.444 340.773C510.639 318.629 513.65 296.599 519.406 275.212L518.665 274.855C515.681 285.925 513.426 297.178 511.914 308.542C510.348 320.326 509.587 332.204 509.637 344.092Z" fill="#2B1473"/>
<path d="M486.073 436.743H486.974C489.576 426.164 491.298 415.387 492.123 404.524C492.93 394.49 493.169 384.429 493.142 374.368C493.142 366.039 492.944 357.697 492.772 349.368C492.639 343.154 492.52 336.941 492.48 330.727C492.374 309.746 492.401 286.848 502.832 268.021L502.064 267.744C496.862 277.223 494.241 287.892 492.957 298.614C491.774 310.208 491.332 321.866 491.633 333.516C491.686 338.805 491.77 344.062 491.885 349.289C492.03 356.547 492.189 363.831 492.242 371.037C492.242 372.16 492.242 373.284 492.242 374.408C492.269 395.349 491.236 416.423 486.073 436.743Z" fill="#2B1473"/>
<path d="M464.023 435.181L464.831 435.3C466.572 427.013 467.775 418.623 468.431 410.181C469.424 398.282 469.57 386.265 469.543 374.3C469.543 365.284 469.411 356.254 469.543 347.237C469.543 344.21 469.543 341.196 469.689 338.181C470.271 316.116 472.588 293.707 480.676 273.017L479.604 273.572C475.667 284.104 472.906 295.037 471.37 306.174C469.569 319.761 468.684 333.453 468.722 347.158C468.643 356.188 468.722 365.217 468.722 374.247V376.891C468.736 396.378 468.113 416.104 464.023 435.181Z" fill="#2B1473"/>
<path d="M446.959 431.76L447.74 431.971C449.54 424.43 450.827 416.775 451.592 409.06C452.721 396.701 453.229 384.293 453.114 371.883C453.114 363.171 453.035 354.459 453.114 345.746C453.114 344.226 453.114 342.705 453.193 341.185C453.327 329.761 454.211 318.358 455.841 307.049C456.642 301.544 457.756 296.088 459.177 290.709C459.858 288.109 460.744 285.568 461.824 283.107L460.659 283.768C459.706 286.092 458.91 288.477 458.277 290.907C456.669 297.083 455.449 303.353 454.623 309.68C453.112 321.608 452.347 333.618 452.333 345.64C452.227 354.313 452.333 362.986 452.333 371.645C452.333 373.668 452.333 375.612 452.333 377.7C452.108 395.839 451.234 414.15 446.959 431.76Z" fill="#2B1473"/>
<path d="M537.013 339.225C537.013 339.225 565.738 366.394 568.174 373.334C570.08 378.781 535.49 430.064 535.49 430.064L544.902 442.478C544.902 442.478 604.325 383.29 599.176 366.883C596.952 359.797 583.291 327.221 559.397 308.527L537.013 339.225Z" fill="#FFE7E7"/>
<path d="M568.294 372.344C571.203 368.949 575.068 366.508 579.387 365.337C579.568 365.312 579.753 365.353 579.906 365.454C580.059 365.554 580.17 365.707 580.219 365.884C580.268 366.06 580.25 366.248 580.17 366.413C580.09 366.578 579.953 366.708 579.784 366.778C575.714 367.878 572.073 370.183 569.339 373.389C568.717 374.116 567.671 373.058 568.294 372.331V372.344Z" fill="#A53D31"/>
<path d="M574.871 363.922C573.377 365.921 572.228 368.155 571.469 370.532C571.178 371.431 569.735 371.047 570.039 370.135C570.832 367.645 572.026 365.301 573.574 363.194C574.143 362.428 575.44 363.194 574.897 363.948L574.871 363.922Z" fill="#A53D31"/>
<path d="M529.903 280.831C549.852 287.362 566.796 306.109 575.586 319.026L541.87 350.954C541.87 350.954 528.553 342.995 524.039 322.873C519.208 300.715 529.903 280.831 529.903 280.831Z" fill="#00B87C"/>
<path d="M571.1 315.775C559.584 325.916 548.597 336.677 537.94 347.69C537.49 348.153 536.789 347.452 537.239 346.989C547.869 335.976 558.882 325.281 570.372 315.075C570.849 314.652 571.564 315.352 571.074 315.775H571.1Z" fill="#2B1473"/>
<path d="M519.606 308.753C520.493 325.16 529.971 340.482 542.255 350.98C542.732 351.403 542.03 352.09 541.553 351.68C529.071 340.998 519.513 325.424 518.613 308.753C518.613 308.118 519.566 308.118 519.606 308.753Z" fill="#2B1473"/>
<path d="M502.859 268.562C502.859 268.562 494.056 285.617 478.463 278.874L477.907 268.43L477.536 261.489L477.271 256.637L494.48 247.197C496.479 255.619 499.1 262.785 502.859 268.562Z" fill="#FFE7E7"/>
<path d="M492.18 255.407C487.454 267.636 480.703 271.166 478.042 271.073L477.539 261.488L492.18 255.407Z" fill="#201626"/>
<path d="M494.362 241.777C494.543 242.473 494.681 243.179 494.772 243.892C494.958 245.387 494.891 246.902 494.574 248.374C493.99 250.797 493.193 253.164 492.191 255.447C490.364 259.995 486.075 262.692 481.601 263.921C469.581 267.187 466.285 259.294 463.942 246.668C462.486 238.815 459.164 235.14 460.275 231.65C460.355 231.478 460.461 231.319 460.553 231.147C462.888 227.149 466.684 224.21 471.143 222.951C472.004 222.713 472.825 222.501 473.619 222.329L474.095 222.157H474.32L474.929 222.052L475.353 221.972L476.306 221.827C486.274 220.505 490.245 225.793 492.191 231.438C493.435 235.285 493.766 239.344 494.362 241.777Z" fill="#FFE7E7"/>
<path d="M490.087 231.598C490.087 231.598 486.976 233.475 486.646 235.882C486.315 238.288 486.195 241.011 484.21 240.086C482.224 239.16 480.609 235.644 480.636 232.153C480.662 228.663 477.988 224.882 473.514 226.535C469.04 228.187 469.424 233.304 466.339 233.224C463.255 233.145 461.163 231.717 459.999 232.484C459.999 232.484 461.455 238.248 462.646 241.738C462.646 241.738 461.812 242.201 459.707 238.076C458.079 234.903 458.211 228.888 458.211 228.888C458.211 228.888 451.156 222.502 455.233 219.633C459.31 216.765 463.149 216.474 471.37 214.054C479.59 211.635 490.696 212.904 495.899 219.673C502.067 227.751 499.87 253.61 496.044 253.042C495.607 252.989 493.714 243.51 490.087 231.598Z" fill="black"/>
<path d="M490.944 246.259C492.469 245.934 493.837 245.099 494.823 243.893C495.009 245.387 494.942 246.902 494.625 248.375C493.205 248.075 491.917 247.335 490.944 246.259Z" fill="#201626"/>
<path d="M473.898 242.288C473.97 242.568 474.148 242.81 474.395 242.963C474.641 243.116 474.938 243.167 475.222 243.107C475.467 242.963 475.647 242.731 475.726 242.458C475.805 242.185 475.776 241.892 475.645 241.64C475.407 241.005 474.824 240.635 474.321 240.82C474.074 240.962 473.891 241.194 473.812 241.468C473.733 241.742 473.764 242.036 473.898 242.288Z" fill="#201626"/>
<path d="M466.085 244.632C466.192 244.772 466.336 244.88 466.501 244.943C466.666 245.007 466.845 245.023 467.019 244.991C467.193 244.959 467.354 244.879 467.485 244.76C467.615 244.641 467.711 244.489 467.76 244.319C467.809 244.149 467.809 243.97 467.762 243.8C467.714 243.63 467.621 243.476 467.491 243.356C467.361 243.237 467.2 243.155 467.027 243.121C466.854 243.087 466.674 243.102 466.509 243.164C466.264 243.308 466.083 243.541 466.004 243.814C465.926 244.087 465.955 244.379 466.085 244.632Z" fill="#201626"/>
<path d="M481.444 244.079C481.616 244.74 480.716 245.533 479.445 245.851C478.174 246.168 477.009 245.851 476.797 245.229C476.586 244.608 477.525 243.775 478.796 243.458C480.067 243.14 481.285 243.418 481.444 244.079Z" fill="#A53D31"/>
<path d="M464.474 249.83C465.101 250.011 465.766 250.011 466.393 249.83C467.717 249.5 468.564 248.706 468.392 248.045C468.22 247.384 467.068 247.107 465.744 247.424C465.13 247.57 464.562 247.865 464.09 248.283L464.474 249.83Z" fill="#A53D31"/>
<path d="M473.593 238.479C473.915 238.184 474.341 238.028 474.777 238.045C475.213 238.063 475.625 238.252 475.923 238.571C475.993 238.695 476.087 238.804 476.2 238.892C476.313 238.98 476.441 239.045 476.579 239.083C476.717 239.121 476.861 239.131 477.002 239.114C477.144 239.096 477.281 239.051 477.405 238.981C477.53 238.911 477.639 238.817 477.727 238.704C477.815 238.592 477.88 238.463 477.918 238.326C477.956 238.188 477.966 238.044 477.949 237.903C477.931 237.761 477.886 237.624 477.816 237.5C477.53 237.09 477.166 236.741 476.745 236.473C476.323 236.205 475.852 236.023 475.359 235.938C474.867 235.853 474.362 235.867 473.875 235.978C473.387 236.09 472.927 236.297 472.521 236.588C472.285 236.734 472.112 236.962 472.036 237.229C471.96 237.496 471.986 237.781 472.11 238.029C472.181 238.153 472.275 238.263 472.387 238.351C472.5 238.439 472.629 238.504 472.766 238.542C472.904 238.58 473.048 238.59 473.19 238.573C473.332 238.555 473.469 238.51 473.593 238.439V238.479Z" fill="#201626"/>
<path d="M464.949 241.58C465.105 241.175 465.384 240.829 465.748 240.591C466.112 240.354 466.541 240.237 466.975 240.258C467.244 240.228 467.492 240.1 467.673 239.899C467.853 239.698 467.953 239.437 467.953 239.167C467.953 238.897 467.853 238.636 467.673 238.435C467.492 238.233 467.244 238.106 466.975 238.076C466.149 238.04 465.331 238.25 464.624 238.678C463.917 239.106 463.353 239.734 463.004 240.482C462.395 241.738 464.327 242.862 464.87 241.606L464.949 241.58Z" fill="#201626"/>
<path d="M472.758 247.611C472.849 247.57 472.921 247.498 472.963 247.408C473.004 247.319 473.011 247.217 472.983 247.122C472.968 247.071 472.943 247.024 472.91 246.983C472.876 246.942 472.834 246.908 472.788 246.884C472.741 246.859 472.689 246.844 472.637 246.84C472.584 246.835 472.531 246.841 472.48 246.857C471.921 247.038 471.328 247.088 470.746 247.003C471.176 245.823 471.294 244.553 471.09 243.314C471.068 243.21 471.006 243.118 470.917 243.059C470.828 243 470.719 242.977 470.614 242.997C470.563 243.006 470.514 243.026 470.47 243.054C470.426 243.083 470.389 243.12 470.359 243.163C470.329 243.206 470.309 243.254 470.298 243.305C470.287 243.356 470.287 243.408 470.296 243.46C470.496 244.671 470.311 245.915 469.767 247.016C469.721 247.126 469.721 247.25 469.767 247.36C469.785 247.417 469.814 247.469 469.853 247.515C469.891 247.56 469.938 247.597 469.992 247.624C470.884 247.932 471.853 247.932 472.745 247.624L472.758 247.611Z" fill="#201626"/>
<path d="M468.787 252.432L476.954 249.444C476.954 249.444 478.093 255.513 474.042 256.504C470.6 257.35 468.787 252.432 468.787 252.432Z" fill="#D38C8C"/>
<path d="M473.895 258.768C474.366 258.833 474.845 258.77 475.283 258.587C475.721 258.403 476.101 258.105 476.384 257.724C476.675 257.274 475.973 256.865 475.682 257.301C475.473 257.567 475.194 257.769 474.875 257.883C474.557 257.998 474.213 258.021 473.882 257.949C473.352 257.949 473.339 258.729 473.882 258.768H473.895Z" fill="#A53D31"/>
<path d="M486.301 244.24C485.748 243.357 485.403 242.361 485.291 241.326C485.179 240.291 485.302 239.244 485.652 238.264C486.552 235.686 488.379 231.654 491.027 231.31C494.998 230.887 496.229 234.139 496.719 237.656C497.208 241.172 496.097 246.223 491.199 246.672C490.234 246.789 489.256 246.62 488.385 246.188C487.515 245.756 486.79 245.079 486.301 244.24Z" fill="#DF6966"/>
<path d="M490.64 242.509C490.009 241.146 489.727 239.646 489.82 238.147C489.992 236.825 490.918 234.67 492.626 234.789C493.195 234.789 493.354 233.942 492.785 233.903C491.999 233.912 491.237 234.175 490.612 234.651C489.987 235.127 489.533 235.792 489.317 236.547C488.655 238.642 488.83 240.911 489.807 242.88C489.858 242.976 489.943 243.049 490.046 243.087C490.148 243.125 490.261 243.125 490.363 243.086C490.465 243.047 490.549 242.973 490.6 242.876C490.651 242.78 490.666 242.668 490.64 242.562V242.509Z" fill="#201626"/>
</g>
<circle cx="304.556" cy="200.163" r="40.986" fill="white"/>
<rect x="292.422" y="178.5" width="16.5421" height="16.5421" rx="1.5473" fill="#00B87C"/>
<rect x="286.91" y="197.402" width="16.5421" height="16.5421" rx="1.5473" fill="#FEA162"/>
<rect x="311.328" y="186.376" width="16.5421" height="16.5421" rx="1.5473" fill="#1A61DB"/>
<rect x="305.816" y="205.278" width="16.5421" height="16.5421" rx="1.5473" fill="#DC1AA3"/>
<defs>
<clipPath id="clip0">
<rect width="237.731" height="211.891" fill="white" transform="translate(47.5469)"/>
</clipPath>
<clipPath id="clip1">
<rect width="210.857" height="200.521" fill="white" transform="translate(369 10.3353)"/>
</clipPath>
<clipPath id="clip2">
<rect width="257.37" height="174.681" fill="white" transform="matrix(-1 0 0 1 279.074 212.425)"/>
</clipPath>
<clipPath id="clip3">
<rect width="242.899" height="166.412" fill="white" transform="translate(356.594 212.925)"/>
</clipPath>
</defs>
</svg>
